<?xml version="1.0" encoding="UTF-8"?>
<svg id="Layer_2" data-name="Layer 2" xmlns="http://www.w3.org/2000/svg" xmlns:xlink="http://www.w3.org/1999/xlink" viewBox="0 0 760.61 750">
  <defs>
    <style>
      .cls-1 {
        fill: #e2f2f1;
      }

      .cls-2 {
        fill: #bfdc94;
      }

      .cls-3 {
        fill: url(#linear-gradient-8);
      }

      .cls-4 {
        fill: url(#linear-gradient-7);
      }

      .cls-5 {
        fill: url(#linear-gradient-5);
      }

      .cls-6 {
        fill: url(#linear-gradient-6);
      }

      .cls-7 {
        fill: url(#linear-gradient-9);
      }

      .cls-8 {
        fill: url(#linear-gradient-4);
      }

      .cls-9 {
        fill: url(#linear-gradient-3);
      }

      .cls-10 {
        fill: url(#linear-gradient-2);
      }

      .cls-11 {
        fill: #e03f59;
      }

      .cls-12 {
        fill: #8da6cc;
      }

      .cls-13 {
        fill: #231f20;
      }

      .cls-14 {
        fill: #5d6bb2;
      }

      .cls-15 {
        fill: #87d0c6;
      }

      .cls-16 {
        fill: url(#linear-gradient);
      }

      .cls-17 {
        fill: #262c65;
      }

      .cls-18 {
        fill: #ef6670;
      }

      .cls-19 {
        fill: #c7badb;
      }

      .cls-20 {
        fill: #d4cbe4;
      }

      .cls-21 {
        fill: #93a9d6;
      }

      .cls-22 {
        fill: #7e424c;
      }

      .cls-23 {
        fill: #aabcd9;
      }

      .cls-24 {
        fill: url(#linear-gradient-43);
      }

      .cls-25 {
        fill: url(#linear-gradient-40);
      }

      .cls-26 {
        fill: url(#linear-gradient-41);
      }

      .cls-27 {
        fill: url(#linear-gradient-42);
      }

      .cls-28 {
        fill: url(#linear-gradient-49);
      }

      .cls-29 {
        fill: url(#linear-gradient-48);
      }

      .cls-30 {
        fill: url(#linear-gradient-45);
      }

      .cls-31 {
        fill: url(#linear-gradient-47);
      }

      .cls-32 {
        fill: url(#linear-gradient-44);
      }

      .cls-33 {
        fill: url(#linear-gradient-46);
      }

      .cls-34 {
        fill: url(#linear-gradient-10);
      }

      .cls-35 {
        fill: url(#linear-gradient-11);
      }

      .cls-36 {
        fill: url(#linear-gradient-12);
      }

      .cls-37 {
        fill: url(#linear-gradient-13);
      }

      .cls-38 {
        fill: url(#linear-gradient-19);
      }

      .cls-39 {
        fill: url(#linear-gradient-14);
      }

      .cls-40 {
        fill: url(#linear-gradient-21);
      }

      .cls-41 {
        fill: url(#linear-gradient-20);
      }

      .cls-42 {
        fill: url(#linear-gradient-22);
      }

      .cls-43 {
        fill: url(#linear-gradient-23);
      }

      .cls-44 {
        fill: url(#linear-gradient-28);
      }

      .cls-45 {
        fill: url(#linear-gradient-25);
      }

      .cls-46 {
        fill: url(#linear-gradient-32);
      }

      .cls-47 {
        fill: url(#linear-gradient-31);
      }

      .cls-48 {
        fill: url(#linear-gradient-33);
      }

      .cls-49 {
        fill: url(#linear-gradient-30);
      }

      .cls-50 {
        fill: url(#linear-gradient-15);
      }

      .cls-51 {
        fill: url(#linear-gradient-16);
      }

      .cls-52 {
        fill: url(#linear-gradient-17);
      }

      .cls-53 {
        fill: url(#linear-gradient-18);
      }

      .cls-54 {
        fill: url(#linear-gradient-35);
      }

      .cls-55 {
        fill: url(#linear-gradient-34);
      }

      .cls-56 {
        fill: url(#linear-gradient-36);
      }

      .cls-57 {
        fill: url(#linear-gradient-38);
      }

      .cls-58 {
        fill: url(#linear-gradient-27);
      }

      .cls-59 {
        fill: url(#linear-gradient-24);
      }

      .cls-60 {
        fill: url(#linear-gradient-26);
      }

      .cls-61 {
        fill: url(#linear-gradient-29);
      }

      .cls-62 {
        fill: url(#linear-gradient-37);
      }

      .cls-63 {
        fill: url(#linear-gradient-39);
      }

      .cls-64 {
        fill: url(#linear-gradient-53);
      }

      .cls-65 {
        fill: url(#linear-gradient-54);
      }

      .cls-66 {
        fill: url(#linear-gradient-55);
      }

      .cls-67 {
        fill: url(#linear-gradient-56);
      }

      .cls-68 {
        fill: url(#linear-gradient-50);
      }

      .cls-69 {
        fill: url(#linear-gradient-51);
      }

      .cls-70 {
        fill: url(#linear-gradient-52);
      }

      .cls-71 {
        fill: #293a88;
      }

      .cls-72 {
        fill: #5265ae;
      }

      .cls-73 {
        fill: #c6d3e6;
      }

      .cls-74 {
        fill: #ced6a9;
      }

      .cls-75 {
        fill: #6fd0de;
      }

      .cls-76 {
        fill: #485ca8;
      }

      .cls-77 {
        fill: #e4ddee;
      }

      .cls-78 {
        fill: #cfeff4;
      }

      .cls-79 {
        fill: #e3e9f2;
      }

      .cls-80 {
        fill: #afe5ed;
      }
    </style>
    <linearGradient id="linear-gradient" x1="420.08" y1="562.79" x2="734.24" y2="562.79" gradientUnits="userSpaceOnUse">
      <stop offset="0" stop-color="#293a88"/>
      <stop offset="1" stop-color="#5265ae"/>
    </linearGradient>
    <linearGradient id="linear-gradient-2" x1="88.8" y1="105.41" x2="563.58" y2="105.41" gradientUnits="userSpaceOnUse">
      <stop offset="0" stop-color="#7793cb"/>
      <stop offset="1" stop-color="#c6d3e6"/>
    </linearGradient>
    <linearGradient id="linear-gradient-3" x1="98.91" y1="492.67" x2="464.52" y2="492.67" gradientUnits="userSpaceOnUse">
      <stop offset="0" stop-color="#485ca8"/>
      <stop offset="1" stop-color="#7793cb"/>
    </linearGradient>
    <linearGradient id="linear-gradient-4" x1="498.22" y1="368.17" x2="747.5" y2="368.17" xlink:href="#linear-gradient-3"/>
    <linearGradient id="linear-gradient-5" x1="125.41" y1="353.8" x2="125.41" y2="239.72" gradientUnits="userSpaceOnUse">
      <stop offset="0" stop-color="#616eb3"/>
      <stop offset="1" stop-color="#8da6cc"/>
    </linearGradient>
    <linearGradient id="linear-gradient-6" x1="653.34" y1="270.97" x2="653.34" y2="157.44" xlink:href="#linear-gradient-5"/>
    <linearGradient id="linear-gradient-7" x1="277.21" y1="633.72" x2="277.21" y2="568.29" xlink:href="#linear-gradient"/>
    <linearGradient id="linear-gradient-8" x1="54.86" y1="562.87" x2="177.49" y2="562.87" xlink:href="#linear-gradient-3"/>
    <linearGradient id="linear-gradient-9" x1="523.69" y1="617.23" x2="694.59" y2="617.23" gradientUnits="userSpaceOnUse">
      <stop offset="0" stop-color="#262c65"/>
      <stop offset="1" stop-color="#274094"/>
    </linearGradient>
    <linearGradient id="linear-gradient-10" x1="658.88" y1="407" x2="750.93" y2="407" gradientUnits="userSpaceOnUse">
      <stop offset="0" stop-color="#5265ae"/>
      <stop offset="1" stop-color="#293a88"/>
    </linearGradient>
    <linearGradient id="linear-gradient-11" x1="278.66" y1="691.57" x2="367.97" y2="691.57" xlink:href="#linear-gradient-9"/>
    <linearGradient id="linear-gradient-12" x1="171.69" y1="652.45" x2="171.69" y2="578.67" xlink:href="#linear-gradient"/>
    <linearGradient id="linear-gradient-13" x1="440.12" y1="456.18" x2="440.12" y2="369.19" xlink:href="#linear-gradient-5"/>
    <linearGradient id="linear-gradient-14" x1="541.41" y1="358.29" x2="541.41" y2="288.38" xlink:href="#linear-gradient-5"/>
    <linearGradient id="linear-gradient-15" x1="154.76" y1="671.57" x2="261.23" y2="671.57" xlink:href="#linear-gradient-9"/>
    <linearGradient id="linear-gradient-16" x1="635.59" y1="191.8" x2="635.59" y2="104.99" xlink:href="#linear-gradient-5"/>
    <linearGradient id="linear-gradient-17" x1="443.74" y1="358.34" x2="443.74" y2="266.32" xlink:href="#linear-gradient-5"/>
    <linearGradient id="linear-gradient-18" x1="239.07" y1="256.94" x2="239.07" y2="219.69" xlink:href="#linear-gradient-5"/>
    <linearGradient id="linear-gradient-19" x1="537.62" y1="430.96" x2="537.62" y2="361.11" xlink:href="#linear-gradient-5"/>
    <linearGradient id="linear-gradient-20" x1="484.34" y1="597.69" x2="618.15" y2="597.69" gradientUnits="userSpaceOnUse">
      <stop offset="0" stop-color="#31b9a0"/>
      <stop offset="1" stop-color="#288b9a"/>
    </linearGradient>
    <linearGradient id="linear-gradient-21" x1="225.31" y1="360.23" x2="424.18" y2="360.23" gradientUnits="userSpaceOnUse">
      <stop offset="0" stop-color="#e03f59"/>
      <stop offset="1" stop-color="#922f3d"/>
    </linearGradient>
    <linearGradient id="linear-gradient-22" x1="137.06" y1="596.84" x2="309.98" y2="596.84" xlink:href="#linear-gradient-20"/>
    <linearGradient id="linear-gradient-23" x1="188.14" y1="427.18" x2="276" y2="427.18" gradientUnits="userSpaceOnUse">
      <stop offset="0" stop-color="#9fd8d8"/>
      <stop offset="1" stop-color="#4fc5d7"/>
    </linearGradient>
    <linearGradient id="linear-gradient-24" x1="457.12" y1="392.91" x2="554.42" y2="392.91" gradientUnits="userSpaceOnUse">
      <stop offset="0" stop-color="#afe5ed"/>
      <stop offset="1" stop-color="#4fc5d7"/>
    </linearGradient>
    <linearGradient id="linear-gradient-25" x1="631.79" y1="329.32" x2="675.57" y2="329.32" xlink:href="#linear-gradient-24"/>
    <linearGradient id="linear-gradient-26" x1="438.42" y1="536.02" x2="532.87" y2="536.02" gradientUnits="userSpaceOnUse">
      <stop offset="0" stop-color="#288b9a"/>
      <stop offset="1" stop-color="#31b9a0"/>
    </linearGradient>
    <linearGradient id="linear-gradient-27" x1="212.35" y1="588.54" x2="308.22" y2="588.54" gradientUnits="userSpaceOnUse">
      <stop offset="0" stop-color="#288b9a"/>
      <stop offset="1" stop-color="#2db6b1"/>
    </linearGradient>
    <linearGradient id="linear-gradient-28" x1="544.72" y1="388.05" x2="629.73" y2="388.05" xlink:href="#linear-gradient-24"/>
    <linearGradient id="linear-gradient-29" x1="432.03" y1="321.32" x2="476.98" y2="321.32" gradientUnits="userSpaceOnUse">
      <stop offset="0" stop-color="#f69e9d"/>
      <stop offset="1" stop-color="#e03f59"/>
    </linearGradient>
    <linearGradient id="linear-gradient-30" x1="275.69" y1="302.68" x2="379.79" y2="302.68" gradientUnits="userSpaceOnUse">
      <stop offset="0" stop-color="#f59999"/>
      <stop offset="1" stop-color="#e03f59"/>
    </linearGradient>
    <linearGradient id="linear-gradient-31" x1="85.87" y1="413.64" x2="183.18" y2="413.64" xlink:href="#linear-gradient-24"/>
    <linearGradient id="linear-gradient-32" x1="423.49" y1="266.73" x2="464.25" y2="266.73" gradientUnits="userSpaceOnUse">
      <stop offset="0" stop-color="#e03f59"/>
      <stop offset="1" stop-color="#f3a074"/>
    </linearGradient>
    <linearGradient id="linear-gradient-33" x1="394.67" y1="556.28" x2="425.91" y2="556.28" gradientUnits="userSpaceOnUse">
      <stop offset="0" stop-color="#268960"/>
      <stop offset="1" stop-color="#a2d393"/>
    </linearGradient>
    <linearGradient id="linear-gradient-34" x1="329.62" y1="281.99" x2="374.76" y2="281.99" xlink:href="#linear-gradient-21"/>
    <linearGradient id="linear-gradient-35" x1="272.11" y1="348.71" x2="341.38" y2="348.71" gradientUnits="userSpaceOnUse">
      <stop offset="0" stop-color="#f3a074"/>
      <stop offset="1" stop-color="#e03f59"/>
    </linearGradient>
    <linearGradient id="linear-gradient-36" x1="310.63" y1="463.39" x2="381.01" y2="463.39" xlink:href="#linear-gradient-23"/>
    <linearGradient id="linear-gradient-37" x1="501.22" y1="450.47" x2="634.79" y2="450.47" xlink:href="#linear-gradient-27"/>
    <linearGradient id="linear-gradient-38" x1="275.89" y1="419.96" x2="392.39" y2="419.96" xlink:href="#linear-gradient-32"/>
    <linearGradient id="linear-gradient-39" x1="165.4" y1="485.83" x2="213.25" y2="485.83" xlink:href="#linear-gradient-24"/>
    <linearGradient id="linear-gradient-40" x1="91.84" y1="278.54" x2="153.19" y2="278.54" xlink:href="#linear-gradient-24"/>
    <linearGradient id="linear-gradient-41" x1="242.14" y1="137.21" x2="285.01" y2="137.21" xlink:href="#linear-gradient-24"/>
    <linearGradient id="linear-gradient-42" x1="565.24" y1="300.62" x2="591.49" y2="300.62" xlink:href="#linear-gradient-33"/>
    <linearGradient id="linear-gradient-43" x1="323.74" y1="559.55" x2="359.28" y2="559.55" xlink:href="#linear-gradient-24"/>
    <linearGradient id="linear-gradient-44" x1="472.58" y1="311.38" x2="502.59" y2="311.38" gradientUnits="userSpaceOnUse">
      <stop offset="0" stop-color="#922f3d"/>
      <stop offset="1" stop-color="#e03f59"/>
    </linearGradient>
    <linearGradient id="linear-gradient-45" x1="252.01" y1="542.96" x2="311.38" y2="542.96" xlink:href="#linear-gradient-27"/>
    <linearGradient id="linear-gradient-46" x1="646.11" y1="441.64" x2="674.31" y2="441.64" xlink:href="#linear-gradient-26"/>
    <linearGradient id="linear-gradient-47" x1="476.96" y1="224.58" x2="501.47" y2="224.58" xlink:href="#linear-gradient-24"/>
    <linearGradient id="linear-gradient-48" x1="160.1" y1="394.56" x2="192.58" y2="394.56" xlink:href="#linear-gradient-33"/>
    <linearGradient id="linear-gradient-49" x1="540.27" y1="482.38" x2="611.54" y2="482.38" xlink:href="#linear-gradient-33"/>
    <linearGradient id="linear-gradient-50" x1="172.57" y1="531.59" x2="246.07" y2="531.59" xlink:href="#linear-gradient-33"/>
    <linearGradient id="linear-gradient-51" x1="215.28" y1="506.41" x2="256.1" y2="506.41" xlink:href="#linear-gradient-24"/>
    <linearGradient id="linear-gradient-52" x1="402.63" y1="102.23" x2="443.54" y2="102.23" xlink:href="#linear-gradient-24"/>
    <linearGradient id="linear-gradient-53" x1="341.15" y1="233.07" x2="381.81" y2="233.07" gradientUnits="userSpaceOnUse">
      <stop offset="0" stop-color="#491312"/>
      <stop offset=".03" stop-color="#f69e9d"/>
      <stop offset="1" stop-color="#e03f59"/>
    </linearGradient>
    <linearGradient id="linear-gradient-54" x1="319.56" y1="652.34" x2="354.69" y2="652.34" xlink:href="#linear-gradient-27"/>
    <linearGradient id="linear-gradient-55" x1="305.82" y1="224.47" x2="329.78" y2="224.47" xlink:href="#linear-gradient-24"/>
    <linearGradient id="linear-gradient-56" x1="319.08" y1="599.94" x2="364.11" y2="599.94" xlink:href="#linear-gradient-24"/>
  </defs>
  <g id="Layer_1-2" data-name="Layer 1">
    <g>
      <g>
        <path class="cls-13" d="M1.02,386.16c0-20.62-2.59-39.46.48-57.33,9.62-55.87,24.82-110.09,59.15-156.8,12.14-16.52,23.59-33.74,37.32-48.85,42.86-47.16,94.8-80.37,155.19-101.68,78.93-27.84,158.19-28.03,237.11-4.22,89.77,27.08,160.85,79.58,211.84,160.08,31.36,49.5,48.64,102.62,56.69,159.6,1.87,13.23,1.92,26.8,1.74,40.21-1.04,79.5-24.11,152.31-70.94,216.4-37.49,51.31-84.75,92.04-144.04,117.19-14.07,5.97-28.35,11.48-42.76,16.55-14.58,5.13-29.16,10.88-44.23,13.87-45.1,8.94-90.27,12.84-136.19,3.21-28.56-5.99-57.12-11.71-84.09-22.7-57.87-23.59-107.58-59.25-148.36-106.59-13.78-16-24.78-34.39-37.04-51.7-.64-.91-.98-2.04-1.67-2.91-4.07-5.08-9.93-9.47-12.05-15.25C20.05,492.97-2.22,441.37,1.02,386.16ZM32.59,242.8c4.79-.21,7.03.25,8.78-.48,29.68-12.43,59.97-20.11,92.72-16.34,10.2,1.17,21.97.43,31.19-3.61,37.04-16.23,74.92-15.92,113.41-8.75,10.87,2.02,21.82,4.93,31.92,9.31,6.15,2.67,10.91,3.29,17.3,1.56,9.14-2.48,19.26-4.38,26.85,3.71,11.64,12.4,25.18,13.07,40.95,10.36,27.66-4.77,54.67-3.64,77.3,16.64,4.57,4.1,9.38,8.05,14.56,11.3,6.1,3.83,12.39,8.65,19.16,9.86,25.5,4.55,50.8,1.4,76.22-3.03,2.08-22.19,4-42.57,6.04-64.37-8.52-.99-15.09-2.69-21.54-2.32-14.75.85-29.09-.86-42.71-6.21-30.64-12.02-61.18-24.32-91.47-37.19-7.1-3.02-13.51-4.67-20.9-2.49-15.53,4.57-31.3,8.43-46.63,13.59-40.37,13.61-82.4,16.49-124.08,14.66-38.29-1.69-76.28-9.82-114.45-14.65-5.14-.65-11.67-.21-15.77,2.47-19.6,12.78-38.57,26.52-57.79,39.88-8.67,6.03-15.64,13.42-21.05,26.1ZM420.08,653.76c2.57,2.45,3.24,3.63,4.18,3.9,25.37,7.36,51.37,9.87,77.66,9.25,3.43-.08,7.66-2.17,10.05-4.71,21.57-22.99,46.6-41.53,73.27-58.04,34.22-21.19,68.65-41.77,108.64-50.78,4.76-1.07,9.69-5.4,12.7-9.55,13.58-18.69,19.72-40.75,27.65-62.18-13.77-12.41-30.97-13.94-46.93-17.89-38.22-9.46-40.57-8.58-62.06,24.77-12.35,19.18-28.71,34.61-46.4,47.77-24.17,17.97-51.2,32.03-80.4,40.42-11.62,3.34-24.18,3.6-36.36,4.79-8.96.88-15.74,3.58-19.16,13.06-4.36,12.05-10.15,23.58-14.86,35.51-3.19,8.07-5.57,16.46-7.97,23.67ZM88.8,148.5c9.17,3.34,16.2,6.8,23.63,8.32,5.64,1.15,12.52,1.52,17.58-.67,31.36-13.58,63.53-23.94,97.02-31.26,42.31-9.25,83.99-10.63,125.85,1.18,4.82,1.36,9.92,1.71,14.78,2.97,15.54,4.04,30.95,8.6,46.56,12.3,5.04,1.2,11.12,1.89,15.76.19,14.08-5.15,27.43-12.29,41.54-17.36,25.73-9.25,46.54-26.31,68.39-41.69,8.5-5.99,15.79-13.7,23.66-20.64-10.4-10.48-12.61-10.48-25.02-5.61-10.81,4.25-21.93,9.51-33.22,10.38-24.42,1.87-48.96.34-73.2-4.33-5.2-1-10.91-.67-16.17.27-12.6,2.25-24.96,6.14-37.62,7.71-27.64,3.44-55.38,7.7-83.14,8.22-37.33.7-74.74-1.48-112.08-3.16-10.72-.48-20.02,1.38-27.88,8.46-16.16,14.55-32.25,29.18-48.02,44.16-6.31,5.99-11.68,12.96-18.43,20.56ZM98.91,500.92c4.06,2.61,6.72,4.54,9.57,6.13,26.94,14.92,53.08,31.07,75.68,52.19,5.42,5.07,10.63,4.39,16.89,3.77,14.38-1.43,28.82-2.36,43.25-3.16,13.93-.77,27.88-1.3,41.83-1.56,7.76-.14,15.64-.21,23.28.92,14.87,2.2,29.53,5.88,44.44,7.64,5.43.64,13.23-.59,16.64-4.14,19.66-20.5,43.31-34.94,68.1-47.97,3.35-1.76,7.2-4.02,8.96-7.11,7.85-13.79,16.34-27.48,16.98-44.81-23.58,2.05-46.25,4.01-65.51,5.69-16.19,18.87-30.41,35.92-45.21,52.45-5.66,6.32-12.83,10.6-21.99,5.95v-22.74c-13.33,16.84-26.71,27.94-47.45,23.5-5.94-7.04-7.43-18.66-18.52-21.6-21.55,13.7-21.78,13.88-37.92-6.14-8.53-10.58-16.12-21.92-25.55-34.86-1.36,7.82-2.34,13.46-3.62,20.83-4.44-2.25-9.28-3.04-10.65-5.65-9.7-18.43-11.85-38.66-11.24-61.95-32.97,22.7-55.42,51.32-77.95,82.61ZM498.22,479.91c2.02.4,2.62.74,2.99.57,42.44-19.37,86.66-31.62,133.48-33.8,7.47-.35,14.85-2.74,18.24-10.05,8.88-19.14,24.47-33.06,36.96-49.4,13.77-18.02,30.23-32.69,49.6-44.04,6.27-3.67,9.17-7.66,7.59-14.72-5.34-23.84-10.66-47.68-16.23-72.65-8.48,9.34-14.96,17.65-22.62,24.68-20.58,18.91-42.57,36.08-67.46,49.03-17.21,8.95-34.48,17.97-52.43,25.19-7.49,3.01-11.89,6.06-14.47,13.77-10.9,32.54-31.98,57.04-60.88,75.18-3.05,1.91-6.71,4.61-7.7,7.71-2.99,9.31-4.79,19-7.06,28.54ZM345.71,514.63c6.01-6,11.23-10.06,14.99-15.18,10.9-14.82,23.04-29.14,31.35-45.37,12.93-25.25,26.91-50.91,28.61-79.94,1.13-19.33-1.28-38.93-2.96-58.34-2.06-23.72-9.1-43.84-33.3-55.69-17.04-8.34-26.51-7.82-38,7.65-16.48,22.17-19.27,47.64-17.51,73.45,1.86,27.23,6.56,54.28,10.43,81.36,1.42,9.9,1.49,21.33,6.67,29.05,7.84,11.68,6.14,21.57,2.11,33.1-3,8.6-6.32,17.55-2.38,29.91ZM240.38,266.51c-6.54-4.19-11.84-8.04-17.54-11.16-17.5-9.57-36.65-13.21-56.26-15.34-9.35-1.01-17.75.5-25.5,5.86-22.51,15.55-45.01,31.12-67.62,46.53-16.58,11.3-33.01,22.88-50.09,33.37-14.07,8.65-15.28,10.22-10.16,28.02,2.62-.77,5.31-1.35,7.85-2.34,29.29-11.42,58.68-12.43,88.26-1.12,8.59,3.28,15.94,2.53,22.24-5.52,4.07-5.21,9.5-9.52,14.86-13.52,16.07-12,30.99-27.1,51.42-30.46,20.94-3.45,30.03-18.72,42.54-34.33ZM589.54,195.95c5.17-34.87,8.26-69.07,32.71-97.61-15.68-11.54-29.83-21.95-44.16-32.5-22.43,16.85-42.86,34.34-65.38,48.51-22.7,14.28-47.46,25.27-71.32,37.7.11,1.34.21,2.67.32,4.01,7.47,3.28,14.82,6.87,22.43,9.78,19.79,7.56,40.09,13.9,59.43,22.44,20.81,9.2,42.08,8.58,65.98,7.65ZM352.04,243.74c-5.7-8.05-11.95-9.91-19.85-8.34-14.41,2.86-26.16,10.38-34.86,21.71-9.85,12.82-19.09,26.23-27.3,40.15-9.78,16.59-21.28,31.27-36.53,43.2-13.74,10.75-25.85,23.32-33.5,39.27-11.78,24.57-15.73,50.1-8.7,80.24,3.12-4.66,4.5-6.21,5.32-8.01,12.86-28.29,34.46-49.74,58.11-68.29,14.11-11.06,29.3-20.89,39.89-35.28,9.79-13.29,20.99-27.53,24.54-42.96,5.46-23.75,14.77-43.94,32.89-61.68ZM396.76,253.09c7.99.96,15.93,1.87,23.85,2.88,17.09,2.17,31.12,10.9,39.83,24.88,13.6,21.83,24.18,45.43,26.56,71.62,4.09,45.08.43,89.29-16.52,131.72-3.72,9.3-8.52,18.17-12.77,27.26-11.09,23.74-21.37,47.9-33.54,71.07-6.67,12.7-17.75,23.04-24.69,35.64-15.7,28.53-26.59,58.84-30.79,91.48-2.88,22.43,2.44,29.23,24.45,27.69,1.52-.11,2.98-1.1,4.5-1.69.41-1.85,1.03-3.44,1.08-5.04,1.19-35.35,5.94-70.41,19.4-103.05,14.86-36.04,31.36-71.63,50.15-105.76,19.37-35.17,27.04-73.18,33.42-111.66,3.36-20.27,4.39-41.26,3.57-61.8-1.52-37.87-12.81-70.96-49.63-90.47-18.9-10.01-38.27-9.31-58.21-7.87-.14.01-.22.97-.66,3.11ZM631.96,458.32c-7.22,0-13.86-.83-20.24.14-33.78,5.11-67.11,12.35-98.31,26.72-9.88,4.55-20.38,9.2-25.88,20.08-7.06,13.96-14.75,27.59-21.74,41.58-3.63,7.27-6.33,15.02-9.58,22.88,60.15,8.59,151.75-59.03,175.75-111.4ZM175.88,380.24c-15.09-4.41-28.97-8.31-42.75-12.55-7.49-2.31-13.02.35-17.81,5.78-10.7,12.11-20.89,24.72-32.19,36.24-17.49,17.82-35.58,35.06-53.79,52.15-4.25,3.99-8.9,6.88-6.27,13.68,2.57,6.65,6,11.13,14.42,11.37,9.91.28,20.27,1.03,29.53,4.22,22.84,7.87,17.11,8.52,35.6-11.52,2.25-2.44,3.55-5.77,5.87-8.12,19.11-19.42,37.66-39.47,57.94-57.59,6.96-6.22,12.02-10.68,10.15-20.3-.73-3.76-.44-7.72-.7-13.36ZM398.34,150.7c-54.3-32.4-220.31-22.67-252.25,14.78,114.35,21.47,193.95,13.96,252.25-14.78ZM712.13,214.97c-10.26-21.12-21.23-40.2-37.19-57.54-7.58,14.39-19.7,22.03-32.96,28.28-10.56,4.98-21.32,9.6-31.53,15.21-3.98,2.18-9.06,6.3-9.61,10.12-2.82,19.55-4.32,39.29-6.29,59.05,3.65.45,5.38,1.08,6.92.79,34.96-6.53,66.83-20.75,96.38-40.12,5.73-3.75,9.54-10.43,14.28-15.8ZM199.15,572c14.27,18.86,25.93,34.29,37.61,49.7,1.35,1.78,2.4,4.26,4.21,5.13,4.37,2.1,9.02,4.54,13.71,4.9,13.91,1.05,27.96.54,41.83,1.85,11.51,1.09,19.03-3.76,25.68-12.28,7.85-10.07,16.48-19.53,24.46-29.5,3-3.75,5.14-8.19,8.61-13.84-51.58-14.61-101.85-9.17-156.11-5.96ZM316.57,342.39c-2.33,1.29-4.08,1.71-4.95,2.82-16.33,20.89-36.31,37.45-58.44,51.98-15.03,9.86-20.64,25.06-15.14,42.51,5.68,18.03,17.63,32.53,29.41,50.5,8.87-12.39,16.5-21.88,22.83-32.16,8.75-14.21,17.26-28.67,24.42-43.71,3.94-8.28,6.86-17.98,6.79-27.01-.12-14.7-3.06-29.38-4.92-44.93ZM54.86,547.78c11.93,24.16,27.71,45.96,47.54,65.78,23.01-17.6,44.23-36.47,75.09-44.82-7.57-6.47-12.15-11.25-17.52-14.83-19.46-12.97-39.12-25.66-58.89-38.15-4.65-2.94-10.29-5.9-15.31-.76-10.05,10.28-19.75,20.91-30.9,32.79ZM694.59,567.24c-14.62-2.38-25.89,3.03-36.43,8.31-21.84,10.95-43.6,22.33-64.19,35.44-19.73,12.56-38.06,27.36-56.72,41.55-4.62,3.51-8.11,8.49-13.56,14.35,31.74,2.62,60.24-.45,88.03-9.68,3.55-1.18,6.84-3.79,9.67-6.38,21.85-20.04,42.67-41.08,60.81-64.61,4.31-5.59,7.76-11.83,12.39-18.99ZM749.14,348.17c-42.3,24.27-66.46,60.03-90.27,97.29,27.35,7.01,52.54,13.46,79.52,20.37,11.1-37.31,15.26-74.89,10.75-117.67ZM582.68,346.41c56.11-26.58,109.42-51.09,142.12-104.8-2.09-4.29-4.17-8.57-6.31-12.98-40.82,26.79-57.67,40.06-116.33,52.81-5.83,1.27-10.74,3.19-11.69,9.97-2.39,16.92-4.79,33.83-7.78,55ZM106.8,362.74c-30.66-15.12-59.71-8.04-88.63,1.5-6.76,2.23-9.22,7.66-8.67,14.55,1.85,22.77,3.62,45.54,5.71,68.29.22,2.44,2.36,4.7,3.55,6.95,19.46-7.01,71.62-61.05,88.04-91.29ZM191.43,62.42c67.11,8.67,133.29,9.96,198.96-6.63-19.65-8.08-39.38-15.08-59.26-21.62-26.76-8.8-53.73-11.36-81.04-2.04-21.01,7.17-40.33,17.54-58.66,30.29ZM278.66,680.33c15.99,18.95,30.99,36.18,50.35,48.92,9.04,5.96,18.71,9.31,30.4,5.11-6.48-27.24,5.78-51.97,8.57-78.48-16.97-6.17-33.95-8.76-51.29-9-2.94-.04-6.61,1.54-8.75,3.61-9.57,9.26-18.71,18.97-29.27,29.83ZM230.39,629.63c-13.9-17.05-25.18-30.77-36.3-44.61-4.27-5.32-9.05-7.61-16.05-5.66-23.24,6.46-42.53,19.33-59.41,36.1-2.52,2.5-3.7,6.36-5.64,9.85,10.57,9.46,20.36,18.23,30.32,27.14,26.31-17.24,55.45-17.41,87.08-22.82ZM403.67,455.37c21.4.54,40.33,2.97,58.58-4.49,5.17-2.11,10.59-4.24,11.09-11.09,1.66-22.64,4.97-45.25,2.08-69.51-11.14-.39-21.59-.85-32.05-1.09-8.62-.19-12.79,4.04-14.54,12.72-2.29,11.4-5.67,22.66-9.49,33.67-4.34,12.52-9.68,24.7-15.68,39.78ZM503.57,288.38c3.64,12.07,7.75,23.08,10.16,34.45,2.37,11.21,3.01,22.79,4.56,35.46,15.54-3.03,29.7-5.44,43.66-8.77,3.24-.77,7.17-4.09,8.35-7.16,6.6-17.16,8.79-35.08,8.96-53.97h-75.69ZM261.23,677.57c-6.85-10.28-12.08-19.55-18.81-27.57-3.11-3.7-9.15-7.01-13.82-6.95-15.03.18-30.2,1.07-45.01,3.55-10.08,1.69-20.44,4.96-28.82,14.12,4.37,3.8,7.68,7.57,11.77,10.08,13.29,8.16,27.32,15.2,40.2,23.93,12.9,8.75,24.32,5.81,35.62-1.93,6.35-4.35,12.04-9.66,18.88-15.24ZM129.86,236.38c-34.41-1.15-65.71,4.64-95.26,19.15-3.22,1.58-6.93,4.82-7.84,8.01-4.8,16.96-11.62,33.58-11.66,54.84,14.19-8.25,27.25-14.35,38.61-22.75,25.09-18.55,49.33-38.26,76.15-59.25ZM494.17,678.87c-26.14-3.55-50.55-6.86-76.85-10.42-3.17,22.35-14.19,43.64-7.46,67.04,25.87,5.12,56.28-20.68,84.32-56.62ZM321.07,16.07c28.3,13.4,56.27,25.65,86.87,30.34,19.88,3.05,39.92-6.38,51.96-27.11-46.64-11.59-92.65-9.78-138.83-3.24ZM668.76,145.93c-12.67-13.38-25.06-26.47-38.76-40.94-21.36,26.63-25.93,55.53-27.57,86.81,37.58-11.9,51.63-21.49,66.33-45.87ZM412.84,266.32c18.88,29.65,14.11,61.31,20.41,92.02h41.39c-.36-22.49-11.12-54.97-23.53-70.84-8.9-11.38-20.74-17.63-38.27-21.19ZM328.42,419.71c-1.16.16-2.32.33-3.49.49-15.74,25.87-31.48,51.74-47.65,78.32,2.72,3.59,5.53,8.59,9.57,12.21,2.91,2.61,7.52,4.86,11.28,4.73,12.04-.43,37.26-26.25,38.27-38.23.09-1.1.06-2.24-.1-3.33-2.61-18.07-5.25-36.13-7.88-54.19ZM404.8,588.09c-12.62-2.12-24.83-4.17-37.71-6.34-13.97,17.61-27.72,34.95-42.89,54.08,17.63,3.8,33.05,7.12,48.69,10.49,10.53-19.21,20.66-37.7,31.91-58.23ZM466.75,724.28c.77,1.22,1.55,2.45,2.32,3.67,41.35-10.25,80.43-25.57,116.19-51.9-22.89.55-43.71.87-64.52,1.71-4.14.17-9.36,1.18-12.1,3.84-14.31,13.86-27.99,28.38-41.89,42.67ZM192.95,366.09c14.57-14,29.88-26.33,42.21-41.14,16.37-19.66,30.47-41.21,45.41-62.05,3.42-4.77,6.27-9.94,10.21-16.27-37.68,15.46-93.96,80.69-97.84,119.47ZM183.3,227.9c24.17,9.9,47.13,19.29,70.94,29.04,12.52-9.14,25.74-18.79,40.6-29.63-38.16-5.68-74.63-14.13-111.54.59ZM563.75,361.11c-17.08,3.34-31.98,6.25-46.33,9.05-2.04,20.91-3.84,39.32-5.94,60.8,26.83-18.08,46.11-37.5,52.26-69.85ZM443.24,51.05c27.8,11.74,72.13,9.38,91.57-4.43-10.64-8.96-23.78-11.88-35.91-17.07-15.96-6.81-28.73-4.68-39.88,9.09-3.7,4.57-9.42,7.51-15.78,12.4ZM132.73,357.11c17.23,4.58,31.16,8.29,44.03,11.71,9.66-20.8,18.53-39.9,28.33-61-28.81,10.29-49.13,28.7-72.36,49.29ZM226.62,423.7c-12.75,13.33-21.32,24.33-12.57,38.23,8.83,14.01,19.91,26.64,30.55,39.43,1.19,1.44,6.86,1.01,8.79-.57,1.81-1.48,2.01-5.7,1.77-8.62-.16-1.92-2.65-3.53-3.59-5.52-9.18-19.42-24.45-36.17-24.95-62.94ZM377.02,571.2c6.21,1.63,9.72,2.75,13.31,3.46,28.74,5.68,23.25,6.2,35.24-16.82,4.58-8.79,11.42-17.27,11.48-31.12-23.07,12.38-41.79,25.95-60.04,44.48ZM240.26,708.09c17.95,11.11,53.05,21.23,67.16,19.35-12.95-13.57-25.46-26.69-38.42-40.28-9.69,7.05-18.98,13.82-28.74,20.93ZM31.21,495.57c5.84,14.91,10.27,27.65,17.92,40.33,13-7.93,21.51-17.21,29.05-28.9-14.91-7.92-29.01-11.47-46.96-11.43ZM250.27,643.64c8.18,10.64,14.1,18.35,19.83,25.81,16.35-9.32,20.96-14.38,23.78-25.81h-43.61ZM58.29,192.7c1.03.99,2.06,1.98,3.09,2.97,13.71-8.91,27.42-17.81,42.55-27.64-10.69-4.93-20.41-8.57-28.02-.99-7.22,7.2-11.85,17-17.62,25.66Z"/>
        <path class="cls-21" d="M32.59,242.8c5.41-12.68,12.37-20.07,21.05-26.1,19.22-13.36,38.19-27.1,57.79-39.88,4.1-2.67,10.63-3.12,15.77-2.47,38.18,4.83,76.17,12.96,114.45,14.65,41.68,1.84,83.71-1.04,124.08-14.66,15.33-5.17,31.09-9.02,46.63-13.59,7.39-2.17,13.8-.53,20.9,2.49,30.29,12.88,60.83,25.17,91.47,37.19,13.62,5.34,27.95,7.06,42.71,6.21,6.45-.37,13.02,1.33,21.54,2.32-2.05,21.79-3.96,42.18-6.04,64.37-25.42,4.43-50.71,7.58-76.22,3.03-6.78-1.21-13.07-6.03-19.16-9.86-5.18-3.25-9.99-7.21-14.56-11.3-22.63-20.28-49.64-21.4-77.3-16.64-15.77,2.72-29.32,2.04-40.95-10.36-7.59-8.09-17.71-6.18-26.85-3.71-6.39,1.73-11.15,1.11-17.3-1.56-10.1-4.38-21.05-7.29-31.92-9.31-38.49-7.17-76.37-7.48-113.41,8.75-9.22,4.04-20.99,4.78-31.19,3.61-32.75-3.77-63.03,3.91-92.72,16.34-1.74.73-3.99.26-8.78.48Z"/>
        <path class="cls-16" d="M420.08,653.76c2.4-7.21,4.79-15.6,7.97-23.67,4.71-11.94,10.51-23.46,14.86-35.51,3.43-9.48,10.2-12.18,19.16-13.06,12.18-1.2,24.73-1.45,36.36-4.79,29.21-8.39,56.23-22.45,80.4-40.42,17.69-13.15,34.05-28.59,46.4-47.77,21.49-33.35,23.83-34.23,62.06-24.77,15.96,3.95,33.16,5.48,46.93,17.89-7.93,21.43-14.07,43.49-27.65,62.18-3.02,4.15-7.94,8.48-12.7,9.55-39.99,9.01-74.43,29.6-108.64,50.78-26.67,16.51-51.7,35.05-73.27,58.04-2.39,2.54-6.62,4.63-10.05,4.71-26.29.61-52.29-1.9-77.66-9.25-.94-.27-1.61-1.45-4.18-3.9Z"/>
        <path class="cls-10" d="M88.8,148.5c6.75-7.6,12.12-14.57,18.43-20.56,15.77-14.97,31.86-29.61,48.02-44.16,7.86-7.08,17.16-8.94,27.88-8.46,37.34,1.69,74.75,3.86,112.08,3.16,27.76-.52,55.5-4.79,83.14-8.22,12.66-1.57,25.02-5.46,37.62-7.71,5.26-.94,10.97-1.27,16.17-.27,24.24,4.67,48.78,6.2,73.2,4.33,11.29-.86,22.41-6.13,33.22-10.38,12.41-4.87,14.62-4.87,25.02,5.61-7.86,6.94-15.15,14.65-23.66,20.64-21.85,15.38-42.66,32.45-68.39,41.69-14.1,5.07-27.46,12.21-41.54,17.36-4.64,1.7-10.72,1-15.76-.19-15.61-3.7-31.03-8.26-46.56-12.3-4.86-1.26-9.96-1.61-14.78-2.97-41.87-11.81-83.54-10.42-125.85-1.18-33.49,7.32-65.66,17.67-97.02,31.26-5.07,2.19-11.94,1.82-17.58.67-7.43-1.52-14.46-4.98-23.63-8.32Z"/>
        <path class="cls-9" d="M98.91,500.92c22.53-31.29,44.98-59.91,77.95-82.61-.61,23.3,1.54,43.53,11.24,61.95,1.38,2.61,6.21,3.41,10.65,5.65,1.28-7.37,2.26-13.01,3.62-20.83,9.43,12.95,17.02,24.29,25.55,34.86,16.15,20.02,16.37,19.83,37.92,6.14,11.09,2.93,12.58,14.55,18.52,21.6,20.73,4.44,34.12-6.66,47.45-23.5v22.74c9.16,4.64,16.34.36,21.99-5.95,14.8-16.53,29.02-33.58,45.21-52.45,19.27-1.67,41.93-3.64,65.51-5.69-.63,17.32-9.13,31.02-16.98,44.81-1.76,3.09-5.61,5.35-8.96,7.11-24.79,13.03-48.43,27.47-68.1,47.97-3.41,3.55-11.21,4.78-16.64,4.14-14.9-1.76-29.57-5.44-44.44-7.64-7.64-1.13-15.52-1.07-23.28-.92-13.95.26-27.9.79-41.83,1.56-14.43.79-28.87,1.73-43.25,3.16-6.25.62-11.47,1.29-16.89-3.77-22.6-21.12-48.74-37.27-75.68-52.19-2.86-1.58-5.52-3.52-9.57-6.13Z"/>
        <path class="cls-8" d="M498.22,479.91c2.27-9.54,4.07-19.22,7.06-28.54.99-3.1,4.65-5.79,7.7-7.71,28.9-18.14,49.98-42.65,60.88-75.18,2.58-7.71,6.98-10.76,14.47-13.77,17.95-7.22,35.22-16.24,52.43-25.19,24.9-12.95,46.89-30.12,67.46-49.03,7.65-7.03,14.14-15.34,22.62-24.68,5.58,24.97,10.89,48.81,16.23,72.65,1.58,7.07-1.32,11.05-7.59,14.72-19.37,11.35-35.83,26.03-49.6,44.04-12.49,16.34-28.07,30.26-36.96,49.4-3.39,7.31-10.77,9.71-18.24,10.05-46.82,2.18-91.04,14.43-133.48,33.8-.37.17-.97-.16-2.99-.57Z"/>
        <path class="cls-73" d="M345.71,514.63c-3.94-12.36-.61-21.31,2.38-29.91,4.02-11.53,5.73-21.42-2.11-33.1-5.18-7.72-5.25-19.15-6.67-29.05-3.87-27.07-8.57-54.12-10.43-81.36-1.76-25.81,1.03-51.28,17.51-73.45,11.49-15.46,20.96-15.99,38-7.65,24.21,11.85,31.25,31.97,33.3,55.69,1.68,19.41,4.1,39.01,2.96,58.34-1.7,29.02-15.68,54.69-28.61,79.94-8.31,16.23-20.45,30.55-31.35,45.37-3.77,5.12-8.98,9.18-14.99,15.18Z"/>
        <path class="cls-5" d="M240.38,266.51c-12.51,15.6-21.6,30.88-42.54,34.33-20.43,3.36-35.35,18.47-51.42,30.46-5.36,4-10.79,8.32-14.86,13.52-6.3,8.05-13.65,8.8-22.24,5.52-29.59-11.31-58.97-10.3-88.26,1.12-2.54.99-5.23,1.57-7.85,2.34-5.12-17.8-3.91-19.37,10.16-28.02,17.08-10.5,33.51-22.07,50.09-33.37,22.61-15.41,45.11-30.98,67.62-46.53,7.76-5.36,16.16-6.88,25.5-5.86,19.61,2.13,38.76,5.77,56.26,15.34,5.7,3.12,11,6.96,17.54,11.16Z"/>
        <path class="cls-23" d="M589.54,195.95c-23.9.93-45.17,1.54-65.98-7.65-19.34-8.55-39.65-14.88-59.43-22.44-7.61-2.91-14.96-6.5-22.43-9.78-.11-1.34-.21-2.67-.32-4.01,23.86-12.43,48.63-23.42,71.32-37.7,22.52-14.17,42.95-31.66,65.38-48.51,14.33,10.54,28.48,20.96,44.16,32.5-24.45,28.54-27.54,62.74-32.71,97.61Z"/>
        <path class="cls-23" d="M352.04,243.74c-18.12,17.74-27.42,37.93-32.89,61.68-3.55,15.44-14.75,29.67-24.54,42.96-10.59,14.39-25.78,24.21-39.89,35.28-23.65,18.55-45.25,40-58.11,68.29-.82,1.81-2.2,3.36-5.32,8.01-7.04-30.14-3.08-55.67,8.7-80.24,7.65-15.95,19.76-28.51,33.5-39.27,15.25-11.94,26.75-26.61,36.53-43.2,8.21-13.92,17.45-27.33,27.3-40.15,8.7-11.32,20.46-18.84,34.86-21.71,7.91-1.57,14.16.29,19.85,8.34Z"/>
        <path class="cls-23" d="M396.76,253.09c.44-2.14.52-3.1.66-3.11,19.93-1.44,39.31-2.14,58.21,7.87,36.82,19.51,48.12,52.61,49.63,90.47.82,20.55-.21,41.54-3.57,61.8-6.38,38.48-14.05,76.49-33.42,111.66-18.8,34.13-35.29,69.72-50.15,105.76-13.45,32.64-18.2,67.69-19.4,103.05-.05,1.6-.67,3.19-1.08,5.04-1.52.59-2.98,1.59-4.5,1.69-22.01,1.54-27.34-5.26-24.45-27.69,4.19-32.64,15.09-62.96,30.79-91.48,6.93-12.6,18.02-22.94,24.69-35.64,12.17-23.17,22.45-47.33,33.54-71.07,4.25-9.09,9.06-17.96,12.77-27.26,16.95-42.43,20.61-86.64,16.52-131.72-2.38-26.2-12.95-49.79-26.56-71.62-8.71-13.98-22.73-22.71-39.83-24.88-7.92-1.01-15.86-1.92-23.85-2.88Z"/>
        <path class="cls-76" d="M631.96,458.32c-24,52.37-115.6,119.99-175.75,111.4,3.25-7.86,5.95-15.61,9.58-22.88,6.99-13.99,14.68-27.62,21.74-41.58,5.5-10.88,16-15.53,25.88-20.08,31.2-14.37,64.53-21.61,98.31-26.72,6.37-.96,13.01-.14,20.24-.14Z"/>
        <path class="cls-72" d="M175.88,380.24c.26,5.64-.03,9.6.7,13.36,1.86,9.62-3.2,14.08-10.15,20.3-20.28,18.12-38.83,38.18-57.94,57.59-2.32,2.35-3.62,5.68-5.87,8.12-18.49,20.04-12.76,19.39-35.6,11.52-9.26-3.19-19.62-3.94-29.53-4.22-8.41-.24-11.84-4.72-14.42-11.37-2.63-6.81,2.02-9.69,6.27-13.68,18.2-17.09,36.3-34.33,53.79-52.15,11.3-11.52,21.49-24.13,32.19-36.24,4.79-5.43,10.32-8.09,17.81-5.78,13.78,4.24,27.66,8.14,42.75,12.55Z"/>
        <path class="cls-23" d="M398.34,150.7c-58.3,28.74-137.89,36.25-252.25,14.78,31.93-37.45,197.95-47.18,252.25-14.78Z"/>
        <path class="cls-6" d="M712.13,214.97c-4.74,5.37-8.55,12.05-14.28,15.8-29.55,19.37-61.42,33.59-96.38,40.12-1.55.29-3.27-.34-6.92-.79,1.97-19.75,3.47-39.49,6.29-59.05.55-3.82,5.63-7.94,9.61-10.12,10.21-5.61,20.97-10.24,31.53-15.21,13.27-6.25,25.38-13.9,32.96-28.28,15.96,17.34,26.93,36.41,37.19,57.54Z"/>
        <path class="cls-4" d="M199.15,572c54.26-3.22,104.53-8.65,156.11,5.96-3.46,5.65-5.6,10.09-8.61,13.84-7.98,9.97-16.61,19.43-24.46,29.5-6.65,8.53-14.17,13.37-25.68,12.28-13.88-1.31-27.92-.79-41.83-1.85-4.69-.36-9.34-2.79-13.71-4.9-1.81-.87-2.86-3.35-4.21-5.13-11.68-15.42-23.34-30.84-37.61-49.7Z"/>
        <path class="cls-12" d="M316.57,342.39c1.85,15.55,4.8,30.23,4.92,44.93.07,9.03-2.85,18.74-6.79,27.01-7.16,15.04-15.67,29.5-24.42,43.71-6.33,10.28-13.95,19.77-22.83,32.16-11.78-17.97-23.73-32.47-29.41-50.5-5.49-17.45.11-32.65,15.14-42.51,22.13-14.52,42.11-31.09,58.44-51.98.87-1.11,2.62-1.53,4.95-2.82Z"/>
        <path class="cls-3" d="M54.86,547.78c11.15-11.88,20.85-22.51,30.9-32.79,5.03-5.14,10.67-2.18,15.31.76,19.77,12.5,39.42,25.19,58.89,38.15,5.38,3.58,9.96,8.36,17.52,14.83-30.86,8.35-52.07,27.22-75.09,44.82-19.83-19.82-35.61-41.61-47.54-65.78Z"/>
        <path class="cls-7" d="M694.59,567.24c-4.63,7.15-8.09,13.4-12.39,18.99-18.13,23.52-38.96,44.56-60.81,64.61-2.82,2.59-6.12,5.2-9.67,6.38-27.78,9.23-56.29,12.29-88.03,9.68,5.45-5.86,8.95-10.84,13.56-14.35,18.66-14.19,36.99-28.99,56.72-41.55,20.59-13.1,42.35-24.49,64.19-35.44,10.53-5.28,21.81-10.69,36.43-8.31Z"/>
        <path class="cls-34" d="M749.14,348.17c4.51,42.78.35,80.36-10.75,117.67-26.98-6.91-52.17-13.37-79.52-20.37,23.81-37.26,47.97-73.02,90.27-97.29Z"/>
        <path class="cls-14" d="M582.68,346.41c2.99-21.16,5.39-38.08,7.78-55,.96-6.78,5.87-8.7,11.69-9.97,58.66-12.75,75.51-26.03,116.33-52.81,2.14,4.41,4.22,8.69,6.31,12.98-32.69,53.71-86.01,78.22-142.12,104.8Z"/>
        <path class="cls-76" d="M106.8,362.74c-16.42,30.24-68.58,84.28-88.04,91.29-1.19-2.25-3.33-4.51-3.55-6.95-2.09-22.75-3.86-45.52-5.71-68.29-.56-6.89,1.91-12.32,8.67-14.55,28.93-9.54,57.97-16.63,88.63-1.5Z"/>
        <path class="cls-79" d="M191.43,62.42c18.34-12.76,37.65-23.13,58.66-30.29,27.31-9.32,54.28-6.76,81.04,2.04,19.88,6.54,39.61,13.54,59.26,21.62-65.67,16.59-131.85,15.3-198.96,6.63Z"/>
        <path class="cls-35" d="M278.66,680.33c10.56-10.85,19.7-20.56,29.27-29.83,2.14-2.07,5.81-3.65,8.75-3.61,17.34.24,34.31,2.82,51.29,9-2.79,26.51-15.04,51.24-8.57,78.48-11.69,4.2-21.35.85-30.4-5.11-19.36-12.75-34.36-29.97-50.35-48.92Z"/>
        <path class="cls-36" d="M230.39,629.63c-31.63,5.41-60.77,5.58-87.08,22.82-9.96-8.91-19.75-17.68-30.32-27.14,1.95-3.49,3.12-7.35,5.64-9.85,16.87-16.77,36.17-29.64,59.41-36.1,7.01-1.95,11.78.35,16.05,5.66,11.12,13.84,22.4,27.55,36.3,44.61Z"/>
        <path class="cls-37" d="M403.67,455.37c6-15.08,11.34-27.26,15.68-39.78,3.82-11.01,7.19-22.26,9.49-33.67,1.74-8.68,5.92-12.91,14.54-12.72,10.46.23,20.91.7,32.05,1.09,2.9,24.26-.41,46.87-2.08,69.51-.5,6.85-5.93,8.98-11.09,11.09-18.25,7.46-37.19,5.03-58.58,4.49Z"/>
        <path class="cls-39" d="M503.57,288.38h75.69c-.18,18.89-2.36,36.82-8.96,53.97-1.18,3.08-5.11,6.39-8.35,7.16-13.95,3.32-28.12,5.74-43.66,8.77-1.55-12.67-2.19-24.25-4.56-35.46-2.4-11.37-6.52-22.38-10.16-34.45Z"/>
        <path class="cls-50" d="M261.23,677.57c-6.84,5.57-12.53,10.89-18.88,15.24-11.3,7.74-22.72,10.68-35.62,1.93-12.88-8.74-26.91-15.77-40.2-23.93-4.09-2.51-7.4-6.28-11.77-10.08,8.38-9.16,18.74-12.43,28.82-14.12,14.8-2.48,29.98-3.36,45.01-3.55,4.67-.06,10.72,3.25,13.82,6.95,6.72,8.02,11.95,17.29,18.81,27.57Z"/>
        <path class="cls-14" d="M129.86,236.38c-26.82,20.99-51.06,40.7-76.15,59.25-11.36,8.4-24.42,14.5-38.61,22.75.04-21.26,6.87-37.87,11.66-54.84.9-3.2,4.62-6.43,7.84-8.01,29.55-14.51,60.85-20.3,95.26-19.15Z"/>
        <path class="cls-17" d="M494.17,678.87c-28.04,35.93-58.45,61.74-84.32,56.62-6.73-23.4,4.29-44.69,7.46-67.04,26.31,3.57,50.72,6.88,76.85,10.42Z"/>
        <path class="cls-79" d="M321.07,16.07c46.18-6.55,92.19-8.35,138.83,3.24-12.04,20.72-32.08,30.16-51.96,27.11-30.6-4.69-58.57-16.94-86.87-30.34Z"/>
        <path class="cls-51" d="M668.76,145.93c-14.71,24.39-28.75,33.97-66.33,45.87,1.64-31.29,6.22-60.18,27.57-86.81,13.7,14.47,26.09,27.56,38.76,40.94Z"/>
        <path class="cls-52" d="M412.84,266.32c17.53,3.56,29.38,9.81,38.27,21.19,12.41,15.86,23.17,48.34,23.53,70.84h-41.39c-6.3-30.71-1.53-62.37-20.41-92.02Z"/>
        <path class="cls-23" d="M328.42,419.71c2.63,18.06,5.27,36.12,7.88,54.19.16,1.09.19,2.23.1,3.33-1.01,11.98-26.23,37.8-38.27,38.23-3.76.13-8.36-2.12-11.28-4.73-4.04-3.62-6.85-8.62-9.57-12.21,16.17-26.58,31.91-52.45,47.65-78.32,1.16-.16,2.32-.33,3.49-.49Z"/>
        <path class="cls-71" d="M404.8,588.09c-11.25,20.53-21.38,39.01-31.91,58.23-15.64-3.37-31.06-6.69-48.69-10.49,15.17-19.13,28.92-36.47,42.89-54.08,12.88,2.17,25.09,4.22,37.71,6.34Z"/>
        <path class="cls-17" d="M466.75,724.28c13.9-14.29,27.57-28.81,41.89-42.67,2.75-2.66,7.96-3.68,12.1-3.84,20.81-.85,41.64-1.16,64.52-1.71-35.76,26.33-74.84,41.65-116.19,51.9-.77-1.22-1.55-2.45-2.32-3.67Z"/>
        <path class="cls-73" d="M192.95,366.09c3.88-38.78,60.16-104.01,97.84-119.47-3.95,6.33-6.8,11.5-10.21,16.27-14.94,20.84-29.04,42.39-45.41,62.05-12.33,14.81-27.64,27.14-42.21,41.14Z"/>
        <path class="cls-53" d="M183.3,227.9c36.91-14.72,73.38-6.27,111.54-.59-14.86,10.84-28.07,20.49-40.6,29.63-23.82-9.75-46.77-19.14-70.94-29.04Z"/>
        <path class="cls-38" d="M563.75,361.11c-6.15,32.36-25.44,51.77-52.26,69.85,2.1-21.49,3.89-39.89,5.94-60.8,14.34-2.8,29.25-5.71,46.33-9.05Z"/>
        <path class="cls-79" d="M443.24,51.05c6.36-4.89,12.08-7.83,15.78-12.4,11.14-13.77,23.92-15.91,39.88-9.09,12.14,5.18,25.27,8.1,35.91,17.07-19.44,13.81-63.76,16.17-91.57,4.43Z"/>
        <path class="cls-76" d="M132.73,357.11c23.23-20.58,43.55-39,72.36-49.29-9.8,21.1-18.67,40.2-28.33,61-12.87-3.42-26.8-7.13-44.03-11.71Z"/>
        <path class="cls-73" d="M226.62,423.7c.5,26.78,15.77,43.52,24.95,62.94.94,1.99,3.43,3.6,3.59,5.52.24,2.92.04,7.14-1.77,8.62-1.93,1.58-7.59,2-8.79.57-10.64-12.78-21.72-25.41-30.55-39.43-8.75-13.9-.18-24.9,12.57-38.23Z"/>
        <path class="cls-76" d="M377.02,571.2c18.25-18.53,36.97-32.11,60.04-44.48-.07,13.84-6.91,22.32-11.48,31.12-11.99,23.03-6.51,22.5-35.24,16.82-3.59-.71-7.1-1.83-13.31-3.46Z"/>
        <path class="cls-17" d="M240.26,708.09c9.76-7.11,19.05-13.87,28.74-20.93,12.96,13.59,25.47,26.7,38.42,40.28-14.11,1.88-49.21-8.24-67.16-19.35Z"/>
        <path class="cls-72" d="M31.21,495.57c17.96-.04,32.05,3.5,46.96,11.43-7.54,11.69-16.05,20.98-29.05,28.9-7.65-12.69-12.08-25.42-17.92-40.33Z"/>
        <path class="cls-17" d="M250.27,643.64h43.61c-2.82,11.43-7.43,16.49-23.78,25.81-5.74-7.47-11.66-15.17-19.83-25.81Z"/>
        <path class="cls-21" d="M58.29,192.7c5.77-8.66,10.4-18.46,17.62-25.66,7.61-7.59,17.33-3.94,28.02.99-15.13,9.83-28.84,18.74-42.55,27.64-1.03-.99-2.06-1.98-3.09-2.97Z"/>
      </g>
      <g>
        <path d="M684.4,364.77c-.7,76.38-18.54,133.44-54.76,184.21-27.35,38.33-61.83,68.94-104.08,90.42-48.66,24.74-100.22,38.02-154.77,35.25-107.9-5.48-193.34-51.97-251.39-144.24-27.3-43.39-41.91-91.46-43.1-143.05-1.67-72.6,20.61-137.36,64.77-194.79,37.5-48.77,86.03-82.59,143.83-102.18,48.94-16.59,99.35-19.63,150.49-9.74,33.78,6.53,65.73,17.8,95.6,34.47,31.92,17.81,59.45,41.26,82.74,69.55,18.08,21.96,33.04,45.82,44.68,71.83,17.43,38.93,25.86,79.7,25.99,108.29ZM308.88,94.07c-9.67-.4-14.2,3.32-16.63,12.09-8.19,29.52-22.54,55.54-45.45,76.51-2.84,2.6-5.13,7.48-5.09,11.27.31,26.27,3.92,51.93,16.65,75.52,2.62,4.85,5.16,9.73,7.23,13.63,7.55-10.62,13.9-21.26,22.01-30.33,5.44-6.09,10.23-11.21,11.13-20.03.79-7.73,3.8-15.47,7.05-22.64,3.49-7.68,3.95-14.75,1.95-23-6.3-26-8.85-52.27-2.11-78.7,1.16-4.57,2.1-9.19,3.26-14.32ZM618.15,548.86c-12.75,0-24.26-1.33-35.34.28-21.73,3.16-43.24,7.87-64.81,12.13-8.1,1.6-13.12,6.91-15.32,14.73-6.2,22.02-12.28,44.07-18.32,66.13-.18.67.51,1.57,1.72,4.9,52.65-20.78,97.44-51.24,132.07-98.18ZM401.88,474.67c-15.66,6.86-31.08,13-45.92,20.32-10.05,4.96-11.61,12.77-7.91,23.16,4.42,12.45,8.47,25.08,11.7,37.89,3.67,14.54,8.39,29.31,8.76,44.07.44,17.45,10.5,29.17,18.38,42.83,15.97-55.36,22.88-111.15,14.98-168.27ZM218.55,375.09c-6.63-19.65,3.04-34.99,11.37-50.81-18.24-26.21-40.78-47.21-67.6-66.6-6.42,26.28-10.47,50.52-6.93,75.4.58,4.08,3.38,8.12,5.96,11.58,7.39,9.93,15.06,19.66,22.91,29.23,2.12,2.58,5.18,5.9,8,6.1,8.62.58,17.74,2.03,26.29-4.89ZM512.72,548.87c2.57.84,3.43,1.43,4.18,1.32,2.16-.33,4.28-.96,6.42-1.44,23.22-5.21,46.11-12.24,70.33-11.65,9.69.24,19.41.08,29.08-.6,3.02-.21,7.21-1.91,8.59-4.27,6-10.27,11.28-20.97,16.55-31.66,1.12-2.27,2.02-5.35,1.42-7.64-3.85-14.72-8.15-29.33-12.56-44.87-1.89,2.15-3.36,3.72-4.71,5.38-9.68,11.89-18.48,24.65-29.21,35.5-16.76,16.95-36.75,25.1-61.48,15.6-13.14,11.96-20.7,27.71-28.59,44.31ZM558.92,226.99c-14.42,6.87-26.85,13.34-39.75,18.7-6.97,2.9-9.01,7.14-8.83,14.17.28,10.58.46,21.25-.55,31.76-2.56,26.46-6.29,52.59-24.12,74.29-7.75,9.43-14.41,19.76-21.57,29.68,7.21-1.43,14.14-3.9,20.1-7.84,10.29-6.8,20.29-14.12,29.84-21.94,9.19-7.52,17.88-15.69,26.32-24.04,4.98-4.93,6.83-10.44,2.56-17.74-7.71-13.19-6.63-27.2-.31-40.69,3.73-7.97,8.05-15.71,12.66-23.21,5.96-9.7,6.17-19.83,3.63-33.14ZM263.58,308.77c-4.85,1.56-8.1,1.6-9.46,3.22-8.18,9.75-16.53,19.46-23.54,30.03-3.23,4.87-4.31,11.58-5.01,17.62-1.02,8.7.68,10.57,9.15,13.32,5.46,1.77,11.32,2.58,16.48,4.94,27.74,12.71,56.74,21.5,86.05,29.81,19.04,5.4,37.59,5.02,56.18.64,11.4-2.69,21.88-8.28,30.75-17.65-6.96-6.63-12.74-13.16-22.11-12-22.32,2.76-44.54,6.28-66.86,9-9.11,1.11-18.71,2.64-27.5.95-16.55-3.18-30.05-11.34-36.77-28.56-6.2-15.9-9.52-32.01-7.36-51.31ZM159.22,452.14c-23.27-10.63-45.02-20.98-69.14-27.86-.43,3.25-1.3,5.45-.9,7.39,7.02,33.59,19.62,65.02,37.38,94.36,1.24,2.06,3.95,4.76,5.83,4.65,13.34-.76,27.39-.02,37.41-13.12-10.11-20.57-18.72-41.77-10.58-65.42ZM137.06,539.32c20.95,47.34,126.9,118.53,172.92,116.12-.66-4.74-1.67-9.39-1.87-14.07-.32-7.67-4-11.88-11.3-14.19-12.55-3.99-24.99-8.37-37.27-13.12-20.42-7.91-39.97-17.79-52.12-36.83-6.12-9.59-14.09-15.26-23.72-20-5.9-2.9-12.4-5.75-16.74-10.39-8.41-8.99-17.95-9.95-29.9-7.52ZM261.93,297.32c-14.95-30.01-29.61-61.44-28.61-100.79-12.87,10.79-22.78,19.21-32.81,27.47-10.33,8.51-20.78,16.86-30.52,24.75,23.43,23.12,45.6,44.99,68.2,67.28,7.32-5.77,15.15-11.94,23.74-18.7ZM567.55,225.09c.93,10.81,3.23,18.17,7.65,24.83,4.39,6.62,8.99,13.09,13.44,19.66,19.39,28.66,13.02,65.04-18.06,78.49-6.03,2.61-8.23,6.88-9.45,13.03-3.01,15.12-6.8,30.09-10.23,45.13-.46,2.04-.62,4.16-1,6.88,30.18-19.24,82.52-111.92,85.57-151.85-25.32-4.3-43.94-22.8-67.92-36.18ZM409.08,223.66c.6.72,1.21,1.45,1.81,2.17,3.7-2.09,7.66-3.82,11.05-6.32,9.08-6.72,18.74-11.15,30.38-11.28,10.69-.12,19.81-3.43,23.02-15.39.66-2.47,2.4-4.7,3.85-6.9,3.18-4.87,3.49-9.59.7-14.9-6.76-12.84-12.98-25.96-19.82-38.74-3.49-6.51-7.86-12.54-11.83-18.78-6.08,1.77-11.25,2.87-16.09,4.78-11.93,4.69-13.71,9.44-11.72,22.15,3.16,20.1,4.62,40.3-2.73,60.01-2.89,7.73-5.74,15.48-8.61,23.22ZM216.03,470.24c1.95-3.71,3.47-6.82,5.18-9.82,8.49-14.84,22.65-22.92,36.78-31.17,3.55-2.07,7.06-5.33,8.96-8.9,3.65-6.85,6.13-14.31,9.04-21.4-24.8-17.98-51.06-18.39-78.3-7.74,1.24,9.1,2.79,18.15,3.63,27.26.96,10.42-8.15,15.87-13.19,23.71,8.84,9.78,12.48,23.93,27.89,28.06ZM554.41,337.84c-26.14,35.54-61.62,54.43-97.29,75.47,21.1,6.73,36.72,20.13,52.49,33.83,9.54,2.99,15.45-2.34,19.77-10.35,3.97-7.36,9.18-14.48,11.19-22.38,6.17-24.19,14.18-48.13,13.84-76.57ZM228.38,478.2c9.04,6.91,18.47,13.41,27.02,20.91,4.89,4.29,8.92,3.47,14.42,2.02,14.02-3.69,28.27-6.49,42.46-9.52,4.05-.87,8.2-1.28,12.9-1.99-5.75-19.31-15.21-34.65-24.86-49.96-5.58-8.86-8.91-10.78-17.96-7.15-22.65,9.09-41.61,22.71-53.98,45.69ZM511.31,239.31c2.17-.49,3.98-.58,5.51-1.29,13.95-6.51,27.84-13.13,41.33-19.51,1.91-15.36-11.01-63.09-21.65-81.19-.42-.02-.93-.21-1.25-.04-16.97,8.99-27.02,25.07-39.23,38.87-1.82,2.05-1.9,6.84-1.04,9.86,5,17.37,10.53,34.58,16.33,53.31ZM493.55,572.46c-41.85.49-70.89,33.55-80.47,91.31,17.62.64,33.94-4.68,50.51-9.04,7.57-1.99,10.47-6.06,11.83-13.52,2.45-13.41,5.95-26.64,9.42-39.84,2.54-9.65,5.73-19.12,8.7-28.9ZM508.09,457.67c-25.99-2.5-49.91-9.55-74.53-19.18,0,8.55-.17,15.54.03,22.51.71,24.67,1.6,49.33,2.3,74,.21,7.6.03,15.21.03,22.81,20.46-35.97,45.76-67.91,72.17-100.13ZM638.13,397.95c11.59-5.42,19.31-13.8,26.68-22.47,9.38-11.02,13.21-23.29,9.17-37.95-4.8-17.41-8.17-35.21-13.02-52.6-2.15-7.71-6.41-14.82-10.62-24.24-20.35,45.95-23.21,90.52-12.21,137.26ZM132.74,381.46c11.42-37.57,14.79-74.17,15.71-113.93-29.64,28.48-51.01,58.79-63.39,96.15,14.98,9.92,30.2,15.58,47.68,17.78ZM532.87,494.73c-2.13-1.38-5.91-5.87-8.74-5.33-20.75,3.93-40,11-51.86,30.44-6.68,10.94-13.96,21.52-20.37,32.61-5.5,9.5-11.15,19.1-13.48,30.25,10.71-5.26,20.42-10.37,30.42-14.81,6.84-3.04,14.08-5.21,21.18-7.64,6.65-2.27,10.75-6.59,14.03-13,8.61-16.86,18.15-33.24,28.82-52.51ZM304.45,620.04c1.29-10.94,2.34-20.53,3.59-30.09.69-5.33-.54-9.75-5.49-12.35-12.42-6.53-24.79-13.18-37.48-19.18-4.79-2.26-9.83-1.73-14.98,1.52-9.47,5.96-20.03,9.08-31.48,8.44-1.43-.08-2.93.93-6.26,2.08,24.88,29.98,58.02,40.14,92.1,49.59ZM353.48,85.36c-7.6,1-15.34,2.32-23.13,2.96-7.64.63-11.58,4.36-13.89,11.69-7.37,23.35-6.84,46.99-3.64,70.8.61,4.58,1.93,9.07,3.64,16.84,10.71-19.06,24.64-30.43,38.9-41.58,2.29-1.79,4.06-6.07,3.8-9.01-1.43-16.6-3.56-33.14-5.67-51.7ZM240.14,121.53c-.83-.52-1.67-1.04-2.5-1.55-36.02,30.69-59.3,69.16-68.92,116.26,21.96-14.2,41.74-30.86,60.47-48.79,1.41-1.35,2.15-3.82,2.45-5.87,2.92-20,5.69-40.03,8.5-60.04ZM544.72,439.7c.86.32,1.75,1.01,2.41.83,27.51-7.22,53.74-17.49,77.97-32.59,3.97-2.47,5.06-5.52,4.49-9.98-2.68-20.78-5.15-41.59-7.7-62.43-11.71,17.46-22.97,35.66-35.67,52.79-13.09,17.66-27.59,34.28-41.49,51.37ZM469.67,248.65c-1.26.78-2.42,1.08-2.6,1.67-.73,2.51-1.36,5.09-1.67,7.68-2.96,24.31-8.08,47.62-23.46,67.9-9.77,12.89-13.03,27.85-6.55,43.83,1.64,4.05,1.98,8.61,3.44,12.75,1.08,3.06,3.02,5.83,6.06,11.51,5.53-9.42,9.95-16.26,13.69-23.46,10.69-20.56,19.65-41.98,18.25-65.59-1.11-18.75-4.66-37.36-7.17-56.29ZM294.27,260.47c-14.8,7.97-23.17,28.32-15.94,42.79,6.51,13.03,15.59,25.04,30.94,28.84,10.64,2.64,21.61,4.65,32.52,5.3,12.39.73,24.59,1.05,35.7,7.46.17.1.94-.86,2.3-2.15-7.32-3.92-14.14-7.86-21.19-11.3-23.86-11.62-44.88-26.12-55.35-52.02-2.61-6.46-5.96-12.62-8.97-18.93ZM456.94,109.52c10.87,20.07,21.43,39.58,32.07,59.23,14.34-14.36,27.85-27.89,41.96-42.02-.95-.81-2.32-2.57-4.12-3.43-15.05-7.15-30.48-13.58-45.2-21.34-11.04-5.82-18.12-2.16-24.71,7.56ZM85.87,376.22v36.26c32.63,13.15,64.16,25.86,95.7,38.56.54-.87,1.07-1.74,1.61-2.6-4.23-3.27-8.09-7.21-12.75-9.68-14.1-7.49-25.76-16.9-30.32-33.05-1.08-3.81-2.18-7.75-4.17-11.11-1.4-2.37-4.02-4.76-6.59-5.57-14.14-4.46-28.44-8.44-43.48-12.81ZM337.49,223.7c13.22-10.79,29.17-13,47.16-13.7-4.62-10.62-9-19.7-12.53-29.1-3.47-9.25-6.08-18.82-9.62-30-9.66,8.19-19.3,13.78-25.4,22-20.53,27.68-21.31,23.84-2.29,49.37.24.32.76.42,2.69,1.43ZM370.82,145.9c4.49,26.73,14.46,49.68,29.68,71.85,16.9-28.54,18.25-57.05,8.53-87.34-6.64,1.84-12.31,2.83-17.49,5-6.8,2.85-13.22,6.63-20.72,10.49ZM385.2,335.65c1.74-2.25,2.55-2.85,2.71-3.59.54-2.59.92-5.22,1.25-7.85,2.18-17.68,8.43-33.11,22.78-44.78,3.94-3.2,6.91-8.12,9.12-12.83,9.4-20.03,6.33-26.21-15.22-32.02-.75-.2-1.69.29-3.8.7-12.12,19.69-22.33,41.05-27.63,64.55-2.08,9.24-1.95,18.6,2.6,27.12,1.77,3.31,5.28,5.69,8.2,8.7ZM423.49,231c16.03,10.46,12.35,24.07,7.34,37.87-.75,2.07-1.86,4.01-2.55,6.09-4.89,14.74-1.36,27.97,6.92,41.64,7.43-7.81,12.16-15.54,14.1-24.76,5.09-24.07,10.03-48.18,14.94-72.29.12-.58-.84-1.39-1.69-2.7-13.83.06-27.64.79-39.06,14.14ZM617.51,203.79c-19.27-26.59-41.63-47.83-68.4-64.86.9,6.47,3.4,12.01,4.95,17.81,4.32,16.14,8.4,32.35,12.27,48.6,1.97,8.3,3.76,10.83,9.65,9.42,13.18-3.16,26.23-6.89,41.53-10.97ZM394.67,659.94c1.24.23,2.49.46,3.73.68,27.48-66.85,31.6-136.43,24.37-208.7-12.51,10.25-11.45,10.19-10.73,23.65,1.28,23.78,2.34,47.69,1.29,71.44-1.56,34.94-9.05,69.1-17.33,103.03-.78,3.21-.91,6.59-1.33,9.89ZM336.73,242.64c-15.81,24.56-4.54,59.11,26.67,78.7.69-6.82.72-13.35,2.13-19.56,2.34-10.26,5.38-20.37,8.5-30.42,1.75-5.62.45-8.93-5-11.6-10.92-5.36-21.53-11.36-32.3-17.11ZM341.38,376.09c-4.16-5.03-7.7-10.15-12.08-14.38-5.03-4.85-10.19-10.46-16.41-12.97-12.03-4.86-19.76-14.19-28.3-22.88-1.85-1.89-3.3-4.23-5.32-5.88-1.65-1.35-3.89-2-6.29-3.16-2.59,15.84,1.05,29.1,6.95,42.36,4.36,9.8,11.25,15.53,20.97,18.66,14.04,4.52,27.81,3.23,40.5-1.74ZM381.01,442.2c-11.58,1.23-23.16,3.25-34.77,3.47-11.84.22-22.55-7.98-35.61-6.89,8.96,17.28,17.37,33.5,25.56,49.29,20.08.85,40.56-20.61,44.82-45.87ZM630.87,415.16c-3.7,1.73-6.44,3.08-9.22,4.31-16.91,7.43-33.72,15.1-50.79,22.15-10.92,4.5-22.01,8.92-33.41,11.85-17.95,4.61-24.6,20.84-36.23,32.33,8.63-.97,16.54-3.03,24.27-5.62,1.77-.59,3.28-2.83,4.3-4.65,9.59-17.04,24.98-24.02,43.62-25.32,13.2-.92,26.45-1.29,39.62-2.52,20.92-1.96,26.48-11.77,17.84-32.51ZM276.38,421.97c7.97.64,15.11.34,21.8,1.94,12.39,2.96,24.5,7.1,36.76,10.63,18.46,5.32,35.87,2.49,52.15-7.34,2.04-1.23,3.07-4.15,5.3-7.32-7.26,0-12.53.31-17.74-.06-11.37-.83-22.95-.93-34.03-3.3-15.92-3.41-31.52-8.39-47.14-13.09-4.88-1.47-8.45-.65-11.98,2.83-4.4,4.34-6.7,9.19-5.13,15.71ZM168.95,456.54c-7.57,19.5-2.84,41.13,12.41,58.59,7.34-1.73,14.89-3.51,21.83-5.14,3.43-10.34,6.59-19.88,10.06-30.34-14.69-7.66-29.01-15.13-44.3-23.1ZM124.36,233.09c-18.38,28.23-27.66,58.62-32.52,90.9,16.32-27.45,37.75-50.51,61.35-74.17-10.61-6.15-19.18-11.13-28.82-16.73ZM155.33,241.71c10.26-31.76,20.85-61.69,37.73-89.08-26.4,20.35-48.23,44.32-65.57,73.96,9.2,4.99,17.52,9.51,27.84,15.12ZM415.42,290.32c-6.94,3.03-10.78,9.69-13.6,17.2-7.4,19.68-5.01,38.73,3.75,57.04,6.37,2.43,12.64,4.82,20.12,7.67-3.85-13.73-4.51-26.05,1.57-38.26,1.46-2.94.38-7.71-.73-11.27-3.35-10.79-7.29-21.4-11.11-32.38ZM369.51,135.75c12.17-5.04,24.46-10.13,37.95-15.71-5.24-12.62-9.76-23.51-14.35-34.56h-27.83c-4.29,16.9-2.55,38.52,4.22,50.27ZM314.38,549.71c2.26-7.24,3.42-12.44,5.49-17.26,3.3-7.67,7.43-14.99,10.79-22.64,3.23-7.37.83-11.01-7.23-10.55-8.78.5-17.75.93-26.2,3.1-8.18,2.1-17.86.82-25.06,9.17,13.8,12.49,27.35,24.74,42.22,38.19ZM285.01,102.85c-.65-.78-1.3-1.56-1.94-2.35-9.15,3.58-18.49,6.78-27.33,10.99-2.53,1.21-4.55,5.17-5.27,8.24-3.01,12.82-5.63,25.75-7.97,38.71-.73,4.07-.11,8.38-.11,15.47,23.15-20.74,32.99-45.84,42.63-71.07ZM569.48,261.68c-.31,13.05-1.08,26.11-.79,39.14.29,12.87-6.16,25.49-2.12,38.74,16.06-5.17,25.02-16.98,24.91-32.26-.13-18-6.98-33.2-22-45.62ZM579.25,222.25c16.03,13.22,31.44,22.21,48.24,28.71,3.24,1.26,7.39.18,12.91.18-.61-5.82.09-10.94-1.81-14.77-3.47-7-8.27-13.39-13.01-19.66-1-1.32-4.09-1.4-6.23-1.45-12.81-.31-25.28,1.56-40.11,6.99ZM356.16,599.2c1.04-.59,2.08-1.18,3.12-1.78-3.35-26.19-9.57-51.65-20.07-77.54-7.81,9.36-11.06,19.28-14.4,29.2-2.19,6.49-1.07,11.6,3.88,16.83,6.66,7.03,12.2,15.12,18.31,22.68,2.94,3.63,6.1,7.08,9.16,10.61ZM472.58,365.39c16.23-16.01,23.42-36.57,26.71-58.53,2.42-16.19,5.09-32.61,1.7-49.5-15.72,6.05-18.75,10.57-17.43,24.89.73,7.9,2.17,15.76,2.5,23.67.85,20.87-6.39,39.92-13.47,59.46ZM310.19,568.88c3.09-6.01-.36-10.23-4.3-13.9-11-10.25-22.14-20.35-33.38-30.34-3.19-2.83-6.92-5.05-10.46-7.6-6.87,4.65-12.55,10.34-8.91,16.8,3.9,6.93,10.6,13.32,17.59,17.26,12.21,6.87,25.59,11.67,39.45,17.77ZM319.67,595.46c-1,.29-2.01.58-3.01.88-.32,6.46-.48,12.94-1,19.38-.57,7.01,2.14,10.99,8.7,14.36,16.84,8.63,33.88,17.36,44.16,34.61.68,1.14,3.54.97,5.39,1.42.66-.82,1.31-1.65,1.97-2.47-15.53-25.28-36.17-46.49-56.21-68.18ZM674.31,403.67c-8.97,10.66-17.96,21.3-26.85,32.02-.79.95-1.44,2.44-1.35,3.61,1.05,13.23,2.62,26.35,10.13,40.31,13.29-24.93,15.55-50.28,18.07-75.94ZM487.23,192.49c-10.98,12-13.61,43.43-5.64,64.18,3.48-1.84,6.96-3.52,10.28-5.47,10.24-5.99,11.03-7.36,8.18-19.12-2.79-11.52-6.11-22.93-9.4-34.32-.54-1.86-2.16-3.4-3.41-5.28ZM182.93,430.03c9.28-6.03,10.39-6.21,9.3-13.19-1.46-9.35-3.57-19.05-7.78-27.41-4.68-9.29-11.94-17.31-18.29-25.72-1.31-1.73-3.56-2.76-6.06-4.63,2.59,31.08,7.17,45.24,22.83,70.95ZM379.47,473.21c.86.73,1.73,1.47,2.59,2.2,14.14-8.2,25.53-19.56,35.54-32.47.79-1.02,1.37-2.28,1.79-3.52,2.13-6.17-.83-15.23-5.84-17.36-6.61-2.81-9.43,2.64-12.96,6.34-.91.95-1.85,1.98-2.39,3.15-6.29,13.86-12.51,27.76-18.75,41.65ZM540.27,488.67c6.13,6.71,10.83,12.13,19.28,12.21,16.96.16,42.36-14.46,52-37.01-22.43,13.78-45.55,21.09-71.28,24.8ZM395.51,367.91c-21.34-14.65-40.73-26.3-66.04-19.23,16.58,23.33,39.21,24.11,66.04,19.23ZM246.07,542.28c-14.84-22.94-57.52-28.73-73.51-10.96,24.32,3.63,48.28,7.2,73.51,10.96ZM256.1,510.12c-12.38-6.29-19.94-18.62-34.44-22.59-2.28,8.82-4.34,16.79-6.38,24.7,10.47,4.56,20,8.72,29.97,13.07,3.49-4.88,6.75-9.45,10.84-15.17ZM402.63,86.02c4.74,11.64,8.93,21.93,13.2,32.43,9.57-4.77,18.36-9.15,27.7-13.8-8.7-16.22-22.76-18.78-40.9-18.63ZM602.61,459.69c-.18-1.07-.36-2.14-.54-3.2-13.28,1.27-26.72,1.72-39.79,4.17-6.6,1.24-12.72,5.78-18.62,9.53-1.92,1.22-2.44,4.66-4.5,8.97,24.18-2.32,44.79-7.83,63.45-19.46ZM242.77,550.51c-23.73-.81-43.77-12.13-67.14-8.36,23.27,19.47,49.32,23.17,67.14,8.36ZM426.9,421.22c19.33,14.62,40.05,21.84,64.71,24.05-16.82-18.78-47.07-30.03-64.71-24.05ZM147.97,358.46c-7.96,36.66-.41,59.77,23.86,70.12-15.12-22.28-15.5-47.44-23.86-70.12ZM327.42,299.19c-5.34-17.26-8.75-34.12-3.45-53.75-6,1.64-9.65,2.57-13.25,3.63-5.77,1.7-7.64,5.76-5.93,11.21,4.59,14.61,11.78,27.78,22.63,38.91ZM558.76,270.79c-14.48,17.72-18.64,48.5,0,53.48v-53.48ZM644.92,424.8c15.88-10.9,29.21-31.83,28.79-44.88-8.4,7.39-17.01,14.83-25.46,22.44-9.37,8.45-9.45,9.44-3.34,22.44ZM381.81,220.22c-14.7-.92-27.56,1.35-40.66,12.03,7.04,5.06,12.45,8.96,19.25,13.85,7.36-8.89,13.77-16.64,21.42-25.89ZM354.69,665.34c-7.34-13.86-24-24.66-35.13-25.99,1.06,7.08,2.11,14.13,3.31,22.2,10.45,1.25,21.14,2.52,31.82,3.8ZM305.82,238.56c7.33,0,12.89.36,18.37-.1,5.07-.43,7.33-6.22,4.05-10.93-3.84-5.51-8.43-10.49-13.99-17.28-3.2,10.73-5.74,19.27-8.43,28.31ZM361.06,628.06c1.02-.88,2.03-1.76,3.05-2.64-14.02-17.7-28.05-35.4-42.47-53.61-4.45,6.14-2.37,9.63.87,13.05,3.94,4.16,7.77,8.42,11.58,12.71,9.02,10.14,17.99,20.33,26.98,30.49ZM381.51,253.74c3.31-7.81,7.74-13.53,8.19-22.05-9.75,3.56-15.91,8.92-20.27,17.81,4.06,1.43,7.24,2.55,12.08,4.25ZM447.79,92.63q3.65,9.67,9.97,2.95c-3.41-1.01-6.3-1.86-9.97-2.95ZM424.7,405.58c.51.84,1.01,1.69,1.52,2.53,2.31-1.38,4.61-2.76,6.92-4.13-.52-.86-1.03-1.72-1.55-2.58-2.3,1.39-4.59,2.79-6.89,4.18Z"/>
        <path class="cls-19" d="M308.88,94.07c-1.16,5.12-2.09,9.75-3.26,14.32-6.74,26.44-4.2,52.71,2.11,78.7,2,8.25,1.54,15.32-1.95,23-3.26,7.18-6.26,14.92-7.05,22.64-.9,8.82-5.69,13.94-11.13,20.03-8.1,9.07-14.45,19.71-22.01,30.33-2.06-3.9-4.61-8.78-7.23-13.63-12.73-23.59-16.35-49.26-16.65-75.52-.04-3.79,2.25-8.68,5.09-11.27,22.92-20.97,37.26-46.99,45.45-76.51,2.43-8.76,6.96-12.49,16.63-12.09Z"/>
        <path class="cls-41" d="M618.15,548.86c-34.63,46.94-79.42,77.4-132.07,98.18-1.2-3.33-1.9-4.24-1.72-4.9,6.05-22.06,12.13-44.11,18.32-66.13,2.2-7.82,7.22-13.13,15.32-14.73,21.57-4.25,43.07-8.97,64.81-12.13,11.08-1.61,22.58-.28,35.34-.28Z"/>
        <path class="cls-15" d="M401.88,474.67c7.89,57.12.99,112.91-14.98,168.27-7.87-13.65-17.94-25.38-18.38-42.83-.37-14.76-5.09-29.53-8.76-44.07-3.23-12.8-7.28-25.44-11.7-37.89-3.69-10.4-2.14-18.2,7.91-23.16,14.84-7.32,30.26-13.46,45.92-20.32Z"/>
        <path class="cls-77" d="M218.55,375.09c-8.55,6.92-17.68,5.48-26.29,4.89-2.82-.19-5.88-3.52-8-6.1-7.85-9.57-15.52-19.3-22.91-29.23-2.58-3.46-5.38-7.5-5.96-11.58-3.54-24.88.51-49.12,6.93-75.4,26.82,19.39,49.36,40.39,67.6,66.6-8.33,15.83-18,31.17-11.37,50.81Z"/>
        <path class="cls-15" d="M512.72,548.87c7.89-16.6,15.45-32.35,28.59-44.31,24.73,9.5,44.73,1.34,61.48-15.6,10.73-10.85,19.53-23.61,29.21-35.5,1.36-1.66,2.83-3.24,4.71-5.38,4.41,15.54,8.71,30.14,12.56,44.87.6,2.29-.3,5.37-1.42,7.64-5.27,10.68-10.54,21.39-16.55,31.66-1.38,2.35-5.57,4.06-8.59,4.27-9.66.67-19.39.83-29.08.6-24.21-.59-47.11,6.44-70.33,11.65-2.14.48-4.25,1.11-6.42,1.44-.75.12-1.61-.47-4.18-1.32Z"/>
        <path class="cls-20" d="M558.92,226.99c2.54,13.31,2.33,23.45-3.63,33.14-4.61,7.5-8.93,15.24-12.66,23.21-6.32,13.49-7.4,27.5.31,40.69,4.26,7.3,2.42,12.81-2.56,17.74-8.45,8.35-17.14,16.53-26.32,24.04-9.54,7.81-19.55,15.14-29.84,21.94-5.96,3.94-12.9,6.41-20.1,7.84,7.16-9.92,13.82-20.25,21.57-29.68,17.83-21.7,21.57-47.83,24.12-74.29,1.02-10.51.83-21.18.55-31.76-.19-7.03,1.86-11.28,8.83-14.17,12.89-5.36,25.32-11.83,39.75-18.7Z"/>
        <path class="cls-40" d="M263.58,308.77c-2.16,19.31,1.16,35.41,7.36,51.31,6.72,17.22,20.22,25.38,36.77,28.56,8.79,1.69,18.39.16,27.5-.95,22.32-2.71,44.55-6.24,66.86-9,9.37-1.16,15.15,5.37,22.11,12-8.87,9.37-19.35,14.96-30.75,17.65-18.59,4.38-37.14,4.76-56.18-.64-29.3-8.31-58.3-17.1-86.05-29.81-5.16-2.36-11.02-3.17-16.48-4.94-8.47-2.75-10.17-4.62-9.15-13.32.7-6.04,1.78-12.75,5.01-17.62,7.01-10.57,15.36-20.29,23.54-30.03,1.36-1.62,4.61-1.65,9.46-3.22Z"/>
        <path class="cls-78" d="M159.22,452.14c-8.14,23.65.47,44.85,10.58,65.42-10.02,13.1-24.08,12.36-37.41,13.12-1.88.11-4.58-2.6-5.83-4.65-17.76-29.34-30.36-60.76-37.38-94.36-.41-1.94.46-4.14.9-7.39,24.12,6.88,45.87,17.24,69.14,27.86Z"/>
        <path class="cls-42" d="M137.06,539.32c11.94-2.43,21.49-1.46,29.9,7.52,4.34,4.64,10.84,7.49,16.74,10.39,9.63,4.74,17.6,10.41,23.72,20,12.15,19.03,31.7,28.92,52.12,36.83,12.28,4.75,24.72,9.14,37.27,13.12,7.3,2.32,10.98,6.52,11.3,14.19.19,4.68,1.21,9.32,1.87,14.07-46.02,2.41-151.97-68.77-172.92-116.12Z"/>
        <path class="cls-80" d="M261.93,297.32c-8.59,6.77-16.42,12.93-23.74,18.7-22.59-22.29-44.77-44.16-68.2-67.28,9.73-7.88,20.19-16.24,30.52-24.75,10.03-8.26,19.93-16.68,32.81-27.47-1,39.36,13.66,70.78,28.61,100.79Z"/>
        <path class="cls-77" d="M567.55,225.09c23.97,13.38,42.59,31.88,67.92,36.18-3.05,39.92-55.39,132.6-85.57,151.85.39-2.72.54-4.84,1-6.88,3.42-15.04,7.22-30.01,10.23-45.13,1.23-6.15,3.43-10.43,9.45-13.03,31.08-13.44,37.45-49.83,18.06-78.49-4.45-6.58-9.05-13.04-13.44-19.66-4.42-6.67-6.72-14.02-7.65-24.83Z"/>
        <path class="cls-77" d="M409.08,223.66c2.87-7.74,5.72-15.48,8.61-23.22,7.35-19.71,5.88-39.91,2.73-60.01-2-12.71-.21-17.46,11.72-22.15,4.85-1.91,10.02-3,16.09-4.78,3.97,6.24,8.35,12.27,11.83,18.78,6.85,12.79,13.07,25.91,19.82,38.74,2.79,5.3,2.49,10.03-.7,14.9-1.44,2.21-3.18,4.43-3.85,6.9-3.21,11.96-12.33,15.27-23.02,15.39-11.64.13-21.3,4.56-30.38,11.28-3.39,2.51-7.35,4.24-11.05,6.32-.6-.72-1.21-1.45-1.81-2.17Z"/>
        <path class="cls-43" d="M216.03,470.24c-15.41-4.13-19.05-18.29-27.89-28.06,5.04-7.85,14.15-13.29,13.19-23.71-.84-9.11-2.39-18.16-3.63-27.26,27.24-10.65,53.51-10.24,78.3,7.74-2.92,7.09-5.4,14.56-9.04,21.4-1.9,3.58-5.41,6.83-8.96,8.9-14.14,8.25-28.29,16.33-36.78,31.17-1.71,3-3.23,6.11-5.18,9.82Z"/>
        <path class="cls-59" d="M554.41,337.84c.34,28.43-7.67,52.38-13.84,76.57-2.02,7.9-7.22,15.02-11.19,22.38-4.32,8.01-10.23,13.34-19.77,10.35-15.77-13.69-31.39-27.09-52.49-33.83,35.67-21.05,71.15-39.94,97.29-75.47Z"/>
        <path class="cls-78" d="M228.38,478.2c12.37-22.98,31.33-36.6,53.98-45.69,9.05-3.63,12.38-1.71,17.96,7.15,9.64,15.31,19.11,30.65,24.86,49.96-4.7.71-8.85,1.13-12.9,1.99-14.19,3.03-28.44,5.83-42.46,9.52-5.5,1.45-9.53,2.27-14.42-2.02-8.55-7.5-17.98-14-27.02-20.91Z"/>
        <path class="cls-19" d="M511.31,239.31c-5.8-18.73-11.33-35.95-16.33-53.31-.87-3.02-.78-7.81,1.04-9.86,12.21-13.8,22.26-29.88,39.23-38.87.32-.17.83.02,1.25.04,10.64,18.1,23.56,65.83,21.65,81.19-13.49,6.39-27.38,13-41.33,19.51-1.53.71-3.34.8-5.51,1.29Z"/>
        <path class="cls-15" d="M493.55,572.46c-2.97,9.78-6.16,19.26-8.7,28.9-3.47,13.2-6.97,26.44-9.42,39.84-1.36,7.46-4.26,11.53-11.83,13.52-16.57,4.36-32.89,9.68-50.51,9.04,9.57-57.75,38.61-90.82,80.47-91.31Z"/>
        <path class="cls-75" d="M508.09,457.67c-26.41,32.22-51.7,64.16-72.17,100.13,0-7.6.18-15.21-.03-22.81-.7-24.67-1.59-49.33-2.3-74-.2-6.97-.03-13.95-.03-22.51,24.62,9.63,48.54,16.68,74.53,19.18Z"/>
        <path class="cls-45" d="M638.13,397.95c-10.99-46.74-8.14-91.3,12.21-137.26,4.21,9.42,8.47,16.53,10.62,24.24,4.85,17.39,8.22,35.2,13.02,52.6,4.04,14.65.2,26.92-9.17,37.95-7.37,8.66-15.09,17.05-26.68,22.47Z"/>
        <path class="cls-78" d="M132.74,381.46c-17.49-2.2-32.71-7.85-47.68-17.78,12.39-37.36,33.75-67.67,63.39-96.15-.92,39.75-4.29,76.36-15.71,113.93Z"/>
        <path class="cls-60" d="M532.87,494.73c-10.67,19.27-20.21,35.65-28.82,52.51-3.28,6.42-7.38,10.74-14.03,13-7.11,2.42-14.34,4.6-21.18,7.64-10.01,4.44-19.72,9.56-30.42,14.81,2.33-11.15,7.98-20.74,13.48-30.25,6.42-11.09,13.7-21.67,20.37-32.61,11.86-19.43,31.11-26.51,51.86-30.44,2.83-.54,6.6,3.95,8.74,5.33Z"/>
        <path class="cls-58" d="M304.45,620.04c-34.08-9.45-67.22-19.61-92.1-49.59,3.33-1.15,4.83-2.16,6.26-2.08,11.45.64,22.01-2.48,31.48-8.44,5.15-3.24,10.19-3.78,14.98-1.52,12.68,5.99,25.05,12.65,37.48,19.18,4.95,2.6,6.19,7.02,5.49,12.35-1.25,9.56-2.3,19.15-3.59,30.09Z"/>
        <path class="cls-80" d="M353.48,85.36c2.12,18.57,4.24,35.11,5.67,51.7.25,2.93-1.51,7.21-3.8,9.01-14.27,11.14-28.19,22.52-38.9,41.58-1.7-7.77-3.02-12.26-3.64-16.84-3.19-23.81-3.73-47.45,3.64-70.8,2.31-7.33,6.25-11.07,13.89-11.69,7.79-.64,15.53-1.96,23.13-2.96Z"/>
        <path class="cls-1" d="M240.14,121.53c-2.81,20.02-5.57,40.04-8.5,60.04-.3,2.06-1.04,4.52-2.45,5.87-18.73,17.94-38.51,34.59-60.47,48.79,9.62-47.1,32.9-85.57,68.92-116.26.83.52,1.67,1.04,2.5,1.55Z"/>
        <path class="cls-44" d="M544.72,439.7c13.9-17.1,28.4-33.71,41.49-51.37,12.7-17.13,23.96-35.33,35.67-52.79,2.55,20.84,5.03,41.65,7.7,62.43.57,4.46-.52,7.51-4.49,9.98-24.24,15.1-50.47,25.36-77.97,32.59-.66.17-1.55-.52-2.41-.83Z"/>
        <path class="cls-61" d="M469.67,248.65c2.5,18.93,6.05,37.54,7.17,56.29,1.4,23.62-7.56,45.03-18.25,65.59-3.74,7.2-8.17,14.05-13.69,23.46-3.05-5.68-4.98-8.44-6.06-11.51-1.46-4.14-1.8-8.7-3.44-12.75-6.47-15.98-3.22-30.94,6.55-43.83,15.38-20.28,20.49-43.59,23.46-67.9.32-2.59.94-5.17,1.67-7.68.17-.59,1.33-.9,2.6-1.67Z"/>
        <path class="cls-49" d="M294.27,260.47c3.01,6.31,6.36,12.47,8.97,18.93,10.47,25.9,31.49,40.39,55.35,52.02,7.06,3.44,13.87,7.38,21.19,11.3-1.36,1.29-2.13,2.24-2.3,2.15-11.11-6.42-23.31-6.74-35.7-7.46-10.92-.64-21.88-2.66-32.52-5.3-15.35-3.8-24.43-15.81-30.94-28.84-7.23-14.47,1.14-34.83,15.94-42.79Z"/>
        <path class="cls-78" d="M456.94,109.52c6.59-9.72,13.67-13.37,24.71-7.56,14.73,7.76,30.15,14.19,45.2,21.34,1.8.86,3.17,2.62,4.12,3.43-14.12,14.13-27.62,27.66-41.96,42.02-10.64-19.65-21.2-39.16-32.07-59.23Z"/>
        <path class="cls-47" d="M85.87,376.22c15.04,4.37,29.34,8.35,43.48,12.81,2.57.81,5.19,3.2,6.59,5.57,1.98,3.35,3.09,7.3,4.17,11.11,4.57,16.15,16.23,25.56,30.32,33.05,4.65,2.47,8.52,6.41,12.75,9.68-.54.87-1.07,1.74-1.61,2.6-31.53-12.71-63.07-25.41-95.7-38.56v-36.26Z"/>
        <path class="cls-77" d="M337.49,223.7c-1.92-1-2.45-1.11-2.69-1.43-19.02-25.53-18.25-21.69,2.29-49.37,6.1-8.22,15.74-13.81,25.4-22,3.54,11.18,6.15,20.76,9.62,30,3.53,9.4,7.91,18.48,12.53,29.1-17.99.7-33.94,2.91-47.16,13.7Z"/>
        <path class="cls-19" d="M370.82,145.9c7.5-3.85,13.92-7.64,20.72-10.49,5.18-2.17,10.86-3.16,17.49-5,9.73,30.3,8.37,58.8-8.53,87.34-15.23-22.17-25.19-45.12-29.68-71.85Z"/>
        <path class="cls-18" d="M385.2,335.65c-2.92-3.01-6.43-5.39-8.2-8.7-4.55-8.53-4.68-17.89-2.6-27.12,5.3-23.5,15.5-44.86,27.63-64.55,2.11-.41,3.04-.9,3.8-.7,21.55,5.81,24.63,11.99,15.22,32.02-2.21,4.7-5.18,9.62-9.12,12.83-14.35,11.67-20.6,27.1-22.78,44.78-.32,2.63-.7,5.26-1.25,7.85-.15.74-.97,1.34-2.71,3.59Z"/>
        <path class="cls-46" d="M423.49,231c11.41-13.36,25.23-14.08,39.06-14.14.85,1.31,1.81,2.11,1.69,2.7-4.91,24.11-9.85,48.22-14.94,72.29-1.95,9.22-6.68,16.95-14.1,24.76-8.28-13.68-11.81-26.9-6.92-41.64.69-2.08,1.8-4.03,2.55-6.09,5.01-13.8,8.7-27.41-7.34-37.87Z"/>
        <path class="cls-20" d="M617.51,203.79c-15.3,4.08-28.35,7.8-41.53,10.97-5.9,1.41-7.68-1.11-9.65-9.42-3.86-16.26-7.94-32.46-12.27-48.6-1.55-5.79-4.06-11.33-4.95-17.81,26.78,17.03,49.13,38.27,68.4,64.86Z"/>
        <path class="cls-48" d="M394.67,659.94c.43-3.3.55-6.68,1.33-9.89,8.27-33.93,15.77-68.1,17.33-103.03,1.06-23.76,0-47.66-1.29-71.44-.73-13.46-1.79-13.4,10.73-23.65,7.22,72.27,3.11,141.85-24.37,208.7-1.24-.23-2.49-.46-3.73-.68Z"/>
        <path class="cls-55" d="M336.73,242.64c10.77,5.75,21.38,11.75,32.3,17.11,5.45,2.68,6.75,5.98,5,11.6-3.13,10.05-6.17,20.17-8.5,30.42-1.41,6.21-1.44,12.74-2.13,19.56-31.2-19.59-42.47-54.14-26.67-78.7Z"/>
        <path class="cls-54" d="M341.38,376.09c-12.69,4.97-26.46,6.26-40.5,1.74-9.72-3.13-16.6-8.87-20.97-18.66-5.9-13.26-9.54-26.51-6.95-42.36,2.41,1.17,4.64,1.81,6.29,3.16,2.02,1.66,3.47,4,5.32,5.88,8.54,8.69,16.27,18.03,28.3,22.88,6.22,2.51,11.38,8.12,16.41,12.97,4.39,4.23,7.92,9.35,12.08,14.38Z"/>
        <path class="cls-56" d="M381.01,442.2c-4.26,25.26-24.74,46.71-44.82,45.87-8.19-15.79-16.59-32-25.56-49.29,13.06-1.09,23.77,7.11,35.61,6.89,11.61-.22,23.19-2.24,34.77-3.47Z"/>
        <path class="cls-62" d="M630.87,415.16c8.64,20.75,3.08,30.55-17.84,32.51-13.17,1.23-26.42,1.6-39.62,2.52-18.64,1.3-34.03,8.28-43.62,25.32-1.02,1.82-2.53,4.06-4.3,4.65-7.73,2.59-15.64,4.65-24.27,5.62,11.63-11.49,18.28-27.72,36.23-32.33,11.4-2.93,22.49-7.34,33.41-11.85,17.07-7.04,33.88-14.72,50.79-22.15,2.79-1.23,5.52-2.57,9.22-4.31Z"/>
        <path class="cls-57" d="M276.38,421.97c-1.57-6.52.73-11.37,5.13-15.71,3.53-3.48,7.09-4.3,11.98-2.83,15.62,4.7,31.22,9.68,47.14,13.09,11.07,2.37,22.65,2.47,34.03,3.3,5.22.38,10.48.06,17.74.06-2.23,3.18-3.25,6.09-5.3,7.32-16.28,9.83-33.7,12.66-52.15,7.34-12.26-3.53-24.37-7.67-36.76-10.63-6.69-1.6-13.83-1.3-21.8-1.94Z"/>
        <path class="cls-63" d="M168.95,456.54c15.29,7.98,29.61,15.44,44.3,23.1-3.47,10.47-6.63,20-10.06,30.34-6.94,1.63-14.49,3.41-21.83,5.14-15.24-17.46-19.97-39.08-12.41-58.59Z"/>
        <path class="cls-25" d="M124.36,233.09c9.65,5.6,18.22,10.57,28.82,16.73-23.6,23.67-45.03,46.73-61.35,74.17,4.86-32.28,14.15-62.67,32.52-90.9Z"/>
        <path class="cls-80" d="M155.33,241.71c-10.32-5.61-18.64-10.12-27.84-15.12,17.34-29.64,39.17-53.61,65.57-73.96-16.88,27.38-27.47,57.32-37.73,89.08Z"/>
        <path class="cls-11" d="M415.42,290.32c3.82,10.99,7.76,21.6,11.11,32.38,1.11,3.56,2.19,8.32.73,11.27-6.08,12.21-5.42,24.53-1.57,38.26-7.48-2.85-13.75-5.24-20.12-7.67-8.75-18.31-11.14-37.36-3.75-57.04,2.82-7.51,6.66-14.17,13.6-17.2Z"/>
        <path class="cls-78" d="M369.51,135.75c-6.77-11.76-8.51-33.37-4.22-50.27h27.83c4.59,11.05,9.11,21.94,14.35,34.56-13.49,5.59-25.78,10.67-37.95,15.71Z"/>
        <path class="cls-15" d="M314.38,549.71c-14.87-13.45-28.41-25.7-42.22-38.19,7.2-8.35,16.88-7.07,25.06-9.17,8.45-2.17,17.42-2.59,26.2-3.1,8.06-.46,10.47,3.18,7.23,10.55-3.36,7.65-7.49,14.97-10.79,22.64-2.07,4.81-3.23,10.02-5.49,17.26Z"/>
        <path class="cls-26" d="M285.01,102.85c-9.63,25.23-19.48,50.33-42.63,71.07,0-7.1-.62-11.41.11-15.47,2.33-12.96,4.96-25.89,7.97-38.71.72-3.06,2.73-7.03,5.27-8.24,8.85-4.22,18.18-7.41,27.33-10.99.65.78,1.3,1.56,1.94,2.35Z"/>
        <path class="cls-27" d="M569.48,261.68c15.02,12.42,21.87,27.62,22,45.62.11,15.28-8.84,27.09-24.91,32.26-4.04-13.25,2.41-25.87,2.12-38.74-.29-13.04.48-26.09.79-39.14Z"/>
        <path class="cls-77" d="M579.25,222.25c14.83-5.42,27.3-7.29,40.11-6.99,2.14.05,5.23.13,6.23,1.45,4.74,6.27,9.54,12.66,13.01,19.66,1.9,3.83,1.2,8.95,1.81,14.77-5.52,0-9.67,1.08-12.91-.18-16.8-6.51-32.21-15.5-48.24-28.71Z"/>
        <path class="cls-24" d="M356.16,599.2c-3.06-3.53-6.22-6.98-9.16-10.61-6.12-7.56-11.66-15.64-18.31-22.68-4.95-5.23-6.07-10.34-3.88-16.83,3.34-9.91,6.59-19.84,14.4-29.2,10.5,25.88,16.72,51.34,20.07,77.54-1.04.59-2.08,1.18-3.12,1.78Z"/>
        <path class="cls-32" d="M472.58,365.39c7.08-19.54,14.32-38.59,13.47-59.46-.32-7.91-1.77-15.77-2.5-23.67-1.32-14.33,1.71-18.84,17.43-24.89,3.39,16.89.72,33.31-1.7,49.5-3.28,21.95-10.48,42.52-26.71,58.53Z"/>
        <path class="cls-30" d="M310.19,568.88c-13.87-6.1-27.24-10.91-39.45-17.77-6.99-3.93-13.69-10.32-17.59-17.26-3.64-6.46,2.04-12.15,8.91-16.8,3.54,2.54,7.27,4.76,10.46,7.6,11.24,9.98,22.38,20.09,33.38,30.34,3.94,3.67,7.39,7.89,4.3,13.9Z"/>
        <path class="cls-15" d="M319.67,595.46c20.04,21.69,40.67,42.9,56.21,68.18-.66.82-1.31,1.65-1.97,2.47-1.85-.44-4.71-.28-5.39-1.42-10.28-17.25-27.32-25.98-44.16-34.61-6.57-3.37-9.27-7.35-8.7-14.36.52-6.45.68-12.92,1-19.38,1-.29,2.01-.58,3.01-.88Z"/>
        <path class="cls-33" d="M674.31,403.67c-2.52,25.66-4.78,51.02-18.07,75.94-7.51-13.96-9.08-27.08-10.13-40.31-.09-1.17.56-2.66,1.35-3.61,8.9-10.72,17.89-21.36,26.85-32.02Z"/>
        <path class="cls-31" d="M487.23,192.49c1.25,1.87,2.87,3.42,3.41,5.28,3.3,11.39,6.61,22.8,9.4,34.32,2.85,11.76,2.06,13.13-8.18,19.12-3.32,1.95-6.8,3.63-10.28,5.47-7.97-20.76-5.34-52.19,5.64-64.18Z"/>
        <path class="cls-29" d="M182.93,430.03c-15.66-25.7-20.24-39.87-22.83-70.95,2.5,1.87,4.75,2.89,6.06,4.63,6.35,8.41,13.61,16.43,18.29,25.72,4.21,8.35,6.32,18.05,7.78,27.41,1.09,6.98-.02,7.16-9.3,13.19Z"/>
        <path class="cls-2" d="M379.47,473.21c6.24-13.89,12.45-27.79,18.75-41.65.53-1.17,1.48-2.2,2.39-3.15,3.53-3.71,6.35-9.15,12.96-6.34,5,2.13,7.97,11.19,5.84,17.36-.43,1.24-1,2.49-1.79,3.52-10.01,12.91-21.4,24.27-35.54,32.47-.86-.73-1.73-1.47-2.59-2.2Z"/>
        <path class="cls-28" d="M540.27,488.67c25.73-3.71,48.85-11.02,71.28-24.8-9.64,22.56-35.04,37.17-52,37.01-8.44-.08-13.15-5.5-19.28-12.21Z"/>
        <path class="cls-11" d="M395.51,367.91c-26.83,4.88-49.46,4.1-66.04-19.23,25.31-7.07,44.7,4.58,66.04,19.23Z"/>
        <path class="cls-68" d="M246.07,542.28c-25.23-3.76-49.19-7.33-73.51-10.96,15.99-17.77,58.66-11.98,73.51,10.96Z"/>
        <path class="cls-69" d="M256.1,510.12c-4.08,5.72-7.35,10.29-10.84,15.17-9.97-4.35-19.51-8.5-29.97-13.07,2.04-7.91,4.1-15.88,6.38-24.7,14.5,3.96,22.06,16.3,34.44,22.59Z"/>
        <path class="cls-70" d="M402.63,86.02c18.15-.16,32.21,2.41,40.9,18.63-9.34,4.66-18.14,9.04-27.7,13.8-4.27-10.5-8.46-20.79-13.2-32.43Z"/>
        <path class="cls-2" d="M602.61,459.69c-18.66,11.64-39.27,17.14-63.45,19.46,2.06-4.31,2.57-7.75,4.5-8.97,5.89-3.75,12.02-8.29,18.62-9.53,13.06-2.45,26.5-2.9,39.79-4.17.18,1.07.36,2.14.54,3.2Z"/>
        <path class="cls-2" d="M242.77,550.51c-17.82,14.81-43.87,11.1-67.14-8.36,23.36-3.77,43.41,7.55,67.14,8.36Z"/>
        <path class="cls-2" d="M426.9,421.22c17.64-5.98,47.89,5.27,64.71,24.05-24.65-2.21-45.38-9.42-64.71-24.05Z"/>
        <path class="cls-74" d="M147.97,358.46c8.36,22.67,8.73,47.84,23.86,70.12-24.27-10.34-31.82-33.46-23.86-70.12Z"/>
        <path class="cls-11" d="M327.42,299.19c-10.85-11.14-18.05-24.31-22.63-38.91-1.71-5.45.16-9.51,5.93-11.21,3.61-1.06,7.25-1.99,13.25-3.63-5.3,19.63-1.89,36.49,3.45,53.75Z"/>
        <path class="cls-74" d="M558.76,270.79v53.48c-18.64-4.98-14.48-35.76,0-53.48Z"/>
        <path class="cls-15" d="M644.92,424.8c-6.11-13-6.04-13.99,3.34-22.44,8.45-7.62,17.06-15.05,25.46-22.44.42,13.05-12.91,33.99-28.79,44.88Z"/>
        <path class="cls-64" d="M381.81,220.22c-7.65,9.24-14.06,16.99-21.42,25.89-6.8-4.9-12.21-8.79-19.25-13.85,13.1-10.68,25.97-12.95,40.66-12.03Z"/>
        <path class="cls-65" d="M354.69,665.34c-10.68-1.28-21.37-2.55-31.82-3.8-1.2-8.07-2.25-15.12-3.31-22.2,11.13,1.34,27.79,12.14,35.13,25.99Z"/>
        <path class="cls-66" d="M305.82,238.56c2.69-9.04,5.24-17.58,8.43-28.31,5.56,6.79,10.15,11.77,13.99,17.28,3.28,4.71,1.02,10.5-4.05,10.93-5.48.46-11.04.1-18.37.1Z"/>
        <path class="cls-67" d="M361.06,628.06c-8.99-10.17-17.96-20.35-26.98-30.49-3.81-4.28-7.64-8.55-11.58-12.71-3.24-3.42-5.32-6.91-.87-13.05,14.42,18.21,28.45,35.91,42.47,53.61-1.02.88-2.03,1.76-3.05,2.64Z"/>
        <path class="cls-11" d="M381.51,253.74c-4.84-1.7-8.02-2.82-12.08-4.25,4.35-8.89,10.52-14.24,20.27-17.81-.45,8.53-4.88,14.25-8.19,22.05Z"/>
        <path class="cls-78" d="M447.79,92.63c3.67,1.09,6.56,1.94,9.97,2.95q-6.32,6.72-9.97-2.95Z"/>
        <path class="cls-22" d="M424.7,405.58c2.3-1.39,4.59-2.79,6.89-4.18.52.86,1.03,1.72,1.55,2.58-2.31,1.38-4.61,2.76-6.92,4.13-.51-.84-1.01-1.69-1.52-2.53Z"/>
      </g>
    </g>
  </g>
</svg>