<?xml version="1.0" encoding="UTF-8"?>
<svg id="Layer_2" data-name="Layer 2" xmlns="http://www.w3.org/2000/svg" viewBox="0 0 471.6 47.58">
  <g id="Layer_1-2" data-name="Layer 1">
    <path d="M263.92,17.48c-3.36.9-6.66,1.98-9.79-.52-.47-.38-1.45-.19-2.19-.16-3.84.18-7.17,1.82-10.57,3.47-4.31,2.09-8.69,4.16-13.24,5.6-5.37,1.71-7.49-.18-7.49-5.94,0-2.8.13-5.59.22-8.81-2.57.12-4.58-.01-6.9,1.68-4.05,2.96-8.59,4.76-14.06,3.04-4.08-1.28-7.99.52-11.47,2.81-1.3.85-2.45,1.94-3.65,2.93-5.95,4.88-9.23,4.92-15.46.05-6.45,2.71-13.13,2.45-20.07,1.35-4.37-.69-9,.08-13.5.38-1.83.12-2.56,1.47-2.63,3.29-.16,4.36-.46,8.71-.6,13.06-.11,3.56-.04,3.56-4.25,5.12-.19-9.62-.38-19.16-.58-29.37-5.92,3.52-11.87,2.17-17.65,2.34-3.05.09-5.8.68-8.33,2.54-2,1.47-4.26,2.61-6.42,3.86-4.06,2.35-5.06,2.14-8.19-1.6-.47-.56-.97-1.09-1.68-1.88-.75.98-1.28,1.71-1.85,2.42-3.04,3.8-3.04,3.78-7.36.98-.74-.48-1.71-.73-2.6-.8-1.71-.14-3.47-.29-5.15-.04-4.59.68-9.02.22-13.38-1.25-5.38-1.81-9.27,1.55-13.29,4.07-.76.47-.91,2.25-.97,3.44-.22,4.36-.29,8.73-.41,13.09-.02.62.04,1.25-.02,1.87-.16,1.75-1.06,3.16-2.86,3.04-1.79-.12-1.83-1.71-1.75-3.23.37-7.31.87-14.62.91-21.93.03-4.77-.64-9.55-1.02-14.75-4.97,1.48-9.33,1.4-13.73.55-2.5-.48-4.9-.12-7.23,1.16-4.71,2.59-9.21,5.28-10.78,10.97-.22.78-1.11,1.38-1.74,2.13C-.03,21.26-.48,19.45.46,17.64c1.87-3.58,3.78-7.11,7.67-9.17,4.9-2.59,9.7-4.95,15.52-3.53,1.63.4,3.43.02,5.15.14,2.75.2,4.94-.2,5.69-3.46.17-.73,1.58-1.67,2.37-1.63.72.04,1.69,1.19,1.96,2.04.47,1.46.52,3.06.67,4.61.22,2.31.38,4.63.65,8.1,1.34-1.86,2.1-2.88,2.82-3.92,1.86-2.66,3.63-3.18,6.85-1.99,2.85,1.05,3.83,2.54,3.68,5.66-.04.76-.15,1.51-.26,2.54,3.59.76,7.04,1.81,10.56,2.14,3.39.32,6.85-.09,10.62-.2,1.09-7.1,5.01-11.53,12.25-12.68,1.75,1.03,1.79,2.7,1.6,4.47-.29,2.74.33,5.24,1.78,7.6,1.51,2.46,2.39,2.9,4.87,1.58,2.62-1.39,5.14-2.97,7.66-4.55,2.48-1.56,5.08-2.04,8.02-1.75,3.23.31,6.52.3,9.76.11,4.11-.24,5.5-1.8,5.74-5.8.02-.31-.05-.62-.04-.94.05-1.84.89-2.99,2.83-2.97,2.1.03,2.47,1.43,2.46,3.2-.02,3.18.04,6.36.92,9.72.37-.59.77-1.17,1.11-1.78,1.04-1.91,1.97-3.89,3.11-5.73.97-1.57,2-3.3,4.38-2.69,2.35.6,4.59,2.92,4.85,5.21.12,1.08.05,2.19-.06,3.27-.09.91-.34,1.81-.52,2.69,7.41,2.63,17.34,2.56,23.1-.29.03-1.05.07-2.27.09-3.49.08-3.84,2.73-5.82,5.65-7.41.73-.4,2.31-.16,2.9.41.58.55,2.62,2.69,2.36,3.56-.91,3.09-3.96,5.42-5.27,9.13,1.8.18,3.45.68,4.93.39,1.62-.32,3.52-1,4.56-2.18,5.62-6.34,12.71-7.11,20.49-6.16,1.79.22,3.75-.19,5.5-.72,2.13-.65,3.61-1.97,2.25-4.55-.2-.39-.17-.91-.21-1.38-.15-1.78-.12-3.59,1.97-4.21,1.68-.5,3.87,1.64,4.19,3.89.06.44.09.88.19,1.91,1.43-.4,2.66-.85,3.92-1.08,1.15-.21,2.67-.63,3.43-.1.65.46.63,2.12.62,3.25-.04,4.32-.2,8.63-.32,13.34,5.18-.62,9.98-1.53,13.77-5.11,3.31-3.13,7.71-3.05,11.69-4.19.89-.25,1.87-.18,2.79-.37,2.53-.54,5.03-1.13,6.41,1.63,3.43-.82,5.97-2.15,8.11-4.4,1.48-1.55,3.22-3.04,5.91-2.45.95,2.5.42,4.14-2.2,5.56-3.62,1.96-3.77,4.09-.92,8.48,1.26-.7,2.79-1.19,3.82-2.19,5.76-5.53,12.84-5.97,20.15-5.25,3.48.35,6.75.21,10.1-.9,2.55-.85,5.16-1.2,5.88-4.48.37-1.68,1.85-2,3.37-1.51,1.18.38,2.63.64,3.4,1.47,3.04,3.27,7.05,3.94,11.09,4.23,6.51.48,13.08,1.54,19.54-.53,2.54-.82,5.05-1.53,6.3-4.36.73-1.64,2.26-2,3.98-1.06.07,2.55-.53,5.38.39,7.58,1.22,2.91,3.62,5.33,5.27,7.63,8.88-2.27,17.32-4.38,25.73-6.61,3.82-1.01,6.85-3.02,7.86-7.19.13-.55.68-1,1.12-1.6,3.27.91,4.7,3.37,5.58,6.21,8.14-2.43,8.44-2.31,11.23,4.92,2.19-1.17,4.33-2.33,6.5-3.45,3.32-1.72,4.55-1.24,6.02,2.28.24.58.45,1.17.73,1.72,2.84,5.68,6.23,6.79,12.09,4.21,3.98-1.76,7.97-3.58,12.12-4.82,4.31-1.29,8.8-2.06,13.25-2.77,1.5-.24,3.15.4,5.04.68-.95,3.02-2.33,4.31-4.93,4.05-7.62-.74-14.37,2.08-21.14,5.01-3.4,1.47-6.95,2.67-10.54,3.63-2.4.64-4.6-.21-6.17-2.37-1.73-2.38-3.55-4.68-5.71-7.51-2.59,1.68-5.22,3.55-8.02,5.11-1.08.6-2.54.49-3.83.71-.15-1.15-.32-2.3-.43-3.45-.15-1.6-.25-3.2-.4-5.03-4.02.37-4.79,3.03-5.48,5.52-.58,2.08-1.06,3.97-3.85,3.97-2.86-3.06.38-7.01-1.44-10.3-.37,0-.97-.22-1.22,0-5.03,4.22-11.25,5.12-17.36,6.41-2.74.58-5.4,1.51-8.08,2.33-2.71.83-5.12,1.64-5.56,5.29-.29,2.4-4.42,4.03-6.95,3.44-2.19-.5-3.46-2.8-2.02-4.67,2.03-2.63,1.24-4.4-.57-6.57-1.58-1.9-2.78-4.12-4.42-6.61-9.6,3.67-19.5,3.08-29.43,1.4-.32,2.2-.44,4.05-.9,5.81-.35,1.32-.98,2.64-1.76,3.76-1.33,1.91-3.31,3.11-5.63,2.61-2.16-.46-3.19-2.3-3.59-4.46-.45-2.43-1-4.85-1.6-7.72-1.66.4-3.23.5-4.55,1.14-3.42,1.65-6.96,1.41-10.54,1.13-1.09-.09-2.19-.09-3.27-.26-5.98-.93-10.99,1.13-15.49,4.88-.6.5-1.21,1-1.87,1.4-3.47,2.1-7.75.88-9.49-2.75-.59-1.24-.95-2.61-1.44-4.01ZM317.57,24.21c4.08-5.23,3.31-8.68-1.99-9.84-.36,3.39-.54,6.65,1.99,9.84ZM135.65,17.54c.29.31.58.62.87.94,2.01-.22,4.32.05,5.23-2.56.74-2.13,1-4.33-2.38-5.47-1.24,2.36-2.48,4.72-3.72,7.09ZM43.47,18.49c4.68-.35,4.95-.58,5.87-5.14-3.46-.94-4.02-.45-5.87,5.14ZM79.21,19.75c.14.05.28.09.43.14.56.18,1.15-.1,1.37-.64.88-2.24,2.9-7.33,3.14-7.94-.13-.05-1.18.43-2.01.78-.98.42-1.76,1.21-2.16,2.2-.54,1.33-1.07,3.06-1.42,4.14-.18.55.12,1.14.67,1.31ZM171.84,14.95c.12.04.38.29.49.33.46.15.51-.09.78-.37,1.24-1.3,3.07-3.87,2.94-4.93-.59-.41-1-.24-1.71.03-.81.31-1.32,1.02-1.89,1.63-.66.7-1.25,1.93-1.1,2.67.08.39.04.49.49.64Z"/>
  </g>
</svg>